<?xml version="1.0" encoding="UTF-8" standalone="no"?>
<!-- Created with Inkscape (http://www.inkscape.org/) -->

<svg
   xmlns:dc="http://purl.org/dc/elements/1.1/"
   xmlns:cc="http://creativecommons.org/ns#"
   xmlns:rdf="http://www.w3.org/1999/02/22-rdf-syntax-ns#"
   xmlns:svg="http://www.w3.org/2000/svg"
   xmlns="http://www.w3.org/2000/svg"
   xmlns:sodipodi="http://sodipodi.sourceforge.net/DTD/sodipodi-0.dtd"
   xmlns:inkscape="http://www.inkscape.org/namespaces/inkscape"
   width="210mm"
   height="297mm"
   viewBox="0 0 210 297"
   version="1.1"
   id="svg8"
   inkscape:version="0.92.4 (5da689c313, 2019-01-14)"
   sodipodi:docname="app_title.svg">
  <defs
     id="defs2" />
  <sodipodi:namedview
     id="base"
     pagecolor="#ffffff"
     bordercolor="#666666"
     borderopacity="1.0"
     inkscape:pageopacity="0.0"
     inkscape:pageshadow="2"
     inkscape:zoom="0.35"
     inkscape:cx="-75.714286"
     inkscape:cy="560"
     inkscape:document-units="mm"
     inkscape:current-layer="flowRoot10"
     showgrid="false"
     inkscape:window-width="1366"
     inkscape:window-height="705"
     inkscape:window-x="-8"
     inkscape:window-y="-8"
     inkscape:window-maximized="1" />
  <metadata
     id="metadata5">
    <rdf:RDF>
      <cc:Work
         rdf:about="">
        <dc:format>image/svg+xml</dc:format>
        <dc:type
           rdf:resource="http://purl.org/dc/dcmitype/StillImage" />
        <dc:title></dc:title>
      </cc:Work>
    </rdf:RDF>
  </metadata>
  <g
     inkscape:label="Layer 1"
     inkscape:groupmode="layer"
     id="layer1">
    <g
       aria-label="Chandu"
       transform="matrix(1.0732421,0,0,1.4965057,-97.324236,-532.03053)"
       style="font-style:normal;font-variant:normal;font-weight:normal;font-stretch:normal;font-size:40px;line-height:1.25;font-family:'Segoe Script';-inkscape-font-specification:'Segoe Script, Normal';font-variant-ligatures:normal;font-variant-caps:normal;font-variant-numeric:normal;font-feature-settings:normal;text-align:start;letter-spacing:0px;word-spacing:0px;writing-mode:lr-tb;text-anchor:start;fill:#000000;fill-opacity:1;stroke:none"
       id="flowRoot10">
      <path
         d="m 136.4707,450.85454 q 0,1.21094 -1.66015,2.98828 -0.41016,0.44922 -1.01563,0.9961 -0.58594,0.54687 -1.25,1.11328 -0.66406,0.54687 -1.34765,1.09375 -0.66407,0.54687 -1.25,0.99609 -1.875,1.44531 -3.92579,2.73438 -2.05078,1.28906 -4.14062,2.26562 -2.08984,0.97656 -4.17969,1.54297 -2.07031,0.56641 -4.0039,0.56641 -2.10938,0 -3.67188,-0.60547 -1.5625,-0.60547 -2.59766,-1.71875 -1.01562,-1.11328 -1.52343,-2.67578 -0.50782,-1.58204 -0.50782,-3.51563 -0.0195,-1.75781 0.35157,-3.57422 0.39062,-1.8164 1.07422,-3.57422 0.68359,-1.75781 1.64062,-3.3789 0.95703,-1.64063 2.08984,-3.02735 0.6836,-0.83984 1.54297,-1.69922 0.85938,-0.8789 1.79688,-1.69921 0.95703,-0.82032 1.93359,-1.52344 0.97656,-0.72266 1.91406,-1.26953 0.60547,-0.35157 1.54297,-0.82032 0.9375,-0.46875 1.97266,-0.8789 1.03516,-0.41016 2.05078,-0.6836 1.01563,-0.29296 1.75781,-0.29296 1.19141,0 1.89453,0.17578 0.72266,0.15625 1.26954,0.54687 0.2539,0.19531 0.58593,0.60547 0.35157,0.39063 0.64453,0.87891 0.3125,0.46875 0.50782,0.95703 0.21484,0.46875 0.21484,0.80078 0,0.33203 -0.3125,0.99609 -0.3125,0.66407 -0.72266,1.38672 -0.41015,0.70313 -0.82031,1.32813 -0.41015,0.60547 -0.625,0.83984 -0.80078,0.87891 -1.71875,0.87891 -0.78125,0 -1.23047,-0.46875 -0.42968,-0.48828 -0.42968,-1.21094 0,-0.25391 0.29296,-0.78125 0.29297,-0.54688 0.97657,-1.23047 0.68359,-0.68359 1.05468,-1.25 0.39063,-0.58594 0.48829,-0.78125 -0.39063,-0.27344 -0.95704,-0.42969 -0.5664,-0.15625 -1.05468,-0.15625 -0.70313,0 -1.73828,0.33203 -1.03516,0.3125 -2.12891,0.82032 -1.07422,0.50781 -2.10938,1.13281 -1.01562,0.60547 -1.71875,1.17187 -2.01171,1.66016 -3.71093,3.57422 -1.69922,1.91407 -2.8125,4.23828 -0.44922,0.95704 -0.85938,2.01172 -0.39062,1.03516 -0.68359,2.10938 -0.29297,1.07422 -0.46875,2.14844 -0.15625,1.05468 -0.15625,2.03125 0,1.15234 0.2539,2.14843 0.27344,0.9961 0.87891,1.71875 0.60547,0.72266 1.58203,1.13282 0.9961,0.41015 2.44141,0.41015 1.5625,0 3.20312,-0.42969 1.64063,-0.42968 3.26172,-1.15234 1.64063,-0.74219 3.24219,-1.67969 1.60156,-0.95703 3.06641,-1.99218 1.48437,-1.03516 2.8125,-2.07032 1.32812,-1.03515 2.42187,-1.95312 0.44922,-0.3711 0.9375,-0.82031 0.50781,-0.44922 0.99609,-0.89844 0.48829,-0.44922 0.9375,-0.89844 0.46875,-0.44922 0.82032,-0.82031 0.8789,0.44922 0.8789,1.28906 z"
         style="fill:#ff0000"
         id="path18" />
      <path
         d="m 170.43555,450.62017 q 0,0.41015 -0.58594,1.28906 -0.21484,0.35156 -0.54688,0.78125 -0.33203,0.42969 -0.70312,0.8789 -0.35156,0.42969 -0.70313,0.82032 -0.35156,0.39062 -0.625,0.66406 -1.13281,1.15234 -2.40234,2.20703 -1.26953,1.05469 -2.63672,1.89453 -1.34765,0.82031 -2.8125,1.32813 -1.44531,0.50781 -2.94922,0.52734 -1.15234,0 -2.05078,-0.42969 -0.8789,-0.42968 -1.38672,-1.38672 -0.50781,-0.95703 -0.76172,-2.14843 -0.2539,-1.19141 -0.41015,-2.5586 -0.0195,-0.21484 -0.0586,-0.64453 -0.0391,-0.42969 -0.0976,-0.9375 -0.0391,-0.52734 -0.11719,-1.07422 -0.0781,-0.54687 -0.17578,-0.99609 -0.0977,-0.44922 -0.23438,-0.72266 -0.11718,-0.29297 -0.27343,-0.29297 -0.60547,0 -1.66016,0.82032 -1.05469,0.80078 -2.30469,2.1289 -1.25,1.3086 -2.55859,2.96875 -1.30859,1.66016 -2.44141,3.37891 -0.99609,1.48437 -1.8164,2.98828 -0.80078,1.48438 -1.40625,2.59766 -0.33203,0.50781 -0.70313,0.70312 -0.37109,0.21485 -0.50781,0.21485 -0.3125,0 -0.64453,-0.15625 -0.3125,-0.13672 -0.58594,-0.3711 -0.25391,-0.23437 -0.42969,-0.54687 -0.15625,-0.29297 -0.15625,-0.58594 0,-0.25391 0.0781,-0.82031 0.0976,-0.58594 0.21484,-1.3086 0.11719,-0.72265 0.23438,-1.48437 0.11718,-0.78125 0.19531,-1.44531 0.13672,-1.28907 0.3125,-2.83204 0.17578,-1.54296 0.33203,-3.10546 0.15625,-1.58204 0.29297,-3.08594 0.13672,-1.50391 0.21484,-2.71485 0.0195,-0.39062 0.0586,-1.03515 0.0391,-0.64453 0.0781,-1.40625 0.0391,-0.78125 0.0781,-1.64063 0.0391,-0.85937 0.0781,-1.66015 0.0391,-0.82032 0.0586,-1.52344 0.0391,-0.72266 0.0586,-1.21094 0.0195,-0.54687 0.0586,-1.01562 0.0586,-0.46875 0.13672,-0.91797 0.0977,-0.46875 0.25391,-0.91797 0.17578,-0.46875 0.42969,-1.01563 0.0781,-0.17578 0.2539,-0.39062 0.17578,-0.21484 0.39063,-0.39063 0.23437,-0.17578 0.48828,-0.29296 0.27344,-0.13672 0.54687,-0.13672 0.56641,0 1.01563,0.44922 0.46875,0.44921 0.46875,1.25 0,0.2539 -0.0977,0.68359 -0.0781,0.42969 -0.19531,0.89844 -0.11719,0.44922 -0.23438,0.8789 -0.0976,0.41016 -0.13671,0.625 -0.15625,0.80078 -0.27344,1.83594 -0.11719,1.03516 -0.23438,2.10938 -0.0976,1.07421 -0.17578,2.1289 -0.0781,1.03516 -0.13672,1.85547 -0.0586,0.9375 -0.15625,1.75781 -0.0781,0.82032 -0.17578,1.64063 -0.0781,0.80078 -0.15625,1.64062 -0.0781,0.82032 -0.15625,1.77735 -0.13672,1.44531 -0.3125,2.55859 -0.17578,1.09375 -0.17578,1.875 0,0.11719 0.11719,0.27344 0.13672,0.15625 0.23437,0.15625 h 0.0781 q 0.17578,-0.21485 0.44922,-0.64453 0.27343,-0.42969 0.625,-0.9375 0.35156,-0.50782 0.72265,-1.05469 0.39063,-0.56641 0.76172,-1.03516 0.3711,-0.46875 0.80078,-1.01562 0.44922,-0.56641 0.91797,-1.13281 0.48828,-0.56641 0.97656,-1.13282 0.50782,-0.5664 0.97657,-1.05468 0.60547,-0.60547 1.34765,-1.26954 0.74219,-0.66406 1.54297,-1.21093 0.82031,-0.54688 1.64063,-0.89844 0.82031,-0.35156 1.5625,-0.35156 0.13672,0 0.35156,0.0781 0.23437,0.0781 0.44922,0.23438 0.23437,0.13672 0.42969,0.35156 0.19531,0.19531 0.29296,0.46875 0.39063,1.05469 0.56641,2.10937 0.17578,1.05469 0.3125,2.22657 0.11719,0.99609 0.25391,2.05078 0.13672,1.05469 0.35156,1.91406 0.21484,0.85938 0.54687,1.40625 0.35157,0.54688 0.87891,0.54688 2.40234,0 4.60938,-1.07422 1.17187,-0.56641 2.01171,-1.09375 0.85938,-0.52735 1.58204,-1.09375 0.74218,-0.56641 1.46484,-1.25 0.72266,-0.6836 1.67969,-1.58203 1.89453,-1.73829 2.20703,-1.73829 0.29297,0 0.29297,0.80079 z"
         style="fill:#ffcc00"
         id="path20" />
      <path
         d="m 179.45898,445.62017 q 0,-0.0391 -0.0586,-0.21485 -0.0586,-0.17578 -0.17578,-0.35156 -0.11719,-0.19531 -0.29297,-0.33203 -0.15625,-0.15625 -0.35156,-0.15625 h -0.0391 q -0.72266,0.0781 -1.54297,0.48828 -0.82032,0.39062 -1.73828,1.23047 -0.91797,0.82031 -1.9336,2.1289 -1.01562,1.3086 -2.10937,3.1836 -0.33203,0.5664 -0.74219,1.25 -0.39063,0.66406 -0.76172,1.48437 -0.35156,0.80078 -0.60547,1.71875 -0.23437,0.91797 -0.23437,1.9336 0,0.60547 0.42968,0.91797 0.44922,0.3125 0.91797,0.3125 0.48828,0 1.26953,-0.52735 0.78125,-0.54687 1.67969,-1.42578 0.91797,-0.89844 1.85547,-2.03125 0.95703,-1.15234 1.75781,-2.36328 0.82032,-1.21094 1.40625,-2.38281 0.60547,-1.17188 0.82032,-2.12891 0.0586,-0.29297 0.13671,-0.68359 0.0781,-0.41016 0.13672,-0.80078 0.0781,-0.41016 0.11719,-0.74219 0.0586,-0.35156 0.0586,-0.50781 z m 15.27344,2.24609 q 0,0.66406 -0.39062,1.42578 -0.3711,0.74219 -0.83985,1.36719 -1.23047,1.66015 -2.57812,3.04687 -1.32813,1.36719 -2.69531,2.59766 -1.42579,1.28906 -2.85157,2.01172 -1.40625,0.72265 -2.53906,0.72265 -0.48828,0 -0.97656,-0.23437 -0.46875,-0.23438 -0.89844,-0.60547 -0.41016,-0.39062 -0.74219,-0.89844 -0.3125,-0.50781 -0.48828,-1.05468 -0.0976,-0.29297 -0.17578,-0.66407 -0.0781,-0.39062 -0.15625,-0.70312 -0.0781,-0.33203 -0.17578,-0.54688 -0.0977,-0.23437 -0.21484,-0.23437 -0.0781,0 -0.33204,0.2539 -0.2539,0.25391 -0.60546,0.66407 -0.33204,0.39062 -0.72266,0.89843 -0.39063,0.48829 -0.78125,0.95704 -0.37109,0.46875 -0.68359,0.85937 -0.29297,0.39063 -0.46875,0.58594 -0.60547,0.68359 -1.44532,1.40625 -0.82031,0.70312 -1.66015,1.28906 -0.82032,0.58594 -1.52344,0.95703 -0.68359,0.3711 -1.01563,0.3711 -0.74218,0 -1.44531,-0.23438 -0.68359,-0.25391 -1.21094,-0.72266 -0.52734,-0.46875 -0.85937,-1.15234 -0.3125,-0.68359 -0.3125,-1.5625 0,-1.44531 0.56641,-3.30078 0.58593,-1.85547 1.52343,-3.76953 0.95703,-1.91406 2.1875,-3.67188 1.23047,-1.77734 2.5586,-3.04687 1.54297,-1.46485 3.22265,-2.14844 1.69922,-0.70312 3.47657,-0.70312 0.33203,0 0.5664,0.13671 0.25391,0.13672 0.42969,0.35157 0.17578,0.21484 0.3125,0.48828 0.13672,0.2539 0.27344,0.52734 0.0781,0.17578 0.33203,0.39063 0.2539,0.21484 0.52734,0.44922 0.27344,0.21484 0.46875,0.42968 0.21485,0.21485 0.21485,0.41016 0,0.41016 -0.17579,0.91797 -0.15625,0.48828 -0.35156,1.15234 -0.19531,0.64453 -0.37109,1.48438 -0.15625,0.82031 -0.15625,1.89453 0,0.70312 0.11719,1.60156 0.13671,0.89844 0.39062,1.71875 0.27344,0.80078 0.68359,1.34766 0.41016,0.54687 0.95704,0.54687 0.66406,0 1.32812,-0.37109 0.66406,-0.39063 1.52344,-1.07422 1.91406,-1.52344 3.63281,-3.33984 1.71875,-1.81641 3.51563,-3.61329 0.3125,-0.3125 0.58593,-0.3125 0.44922,0 0.44922,0.70313 z"
         style="fill:#ff00ff"
         id="path22" />
      <path
         d="m 225.5918,449.48735 q 0,0.3711 -0.13672,0.76172 -0.11719,0.3711 -0.3125,0.76172 -0.17578,0.37109 -0.41016,0.74219 -0.23437,0.35156 -0.44922,0.68359 -0.5664,0.87891 -1.32812,1.79688 -0.76172,0.89843 -1.64063,1.75781 -0.85937,0.85937 -1.77734,1.62109 -0.91797,0.76172 -1.79688,1.34766 -0.70312,0.46875 -1.34765,0.87891 -0.625,0.41015 -1.26953,0.70312 -0.64453,0.29297 -1.34766,0.46875 -0.70312,0.17578 -1.54297,0.17578 -1.62109,0 -2.63672,-0.82031 -0.50781,-0.41016 -0.89843,-1.05469 -0.3711,-0.66406 -0.66407,-1.46484 -0.27343,-0.80078 -0.48828,-1.69922 -0.19531,-0.89844 -0.33203,-1.77734 -0.17578,-1.09375 -0.33203,-1.95313 -0.15625,-0.87891 -0.37109,-1.46484 -0.19532,-0.60547 -0.48829,-0.91797 -0.29296,-0.33203 -0.76171,-0.33203 -0.3711,0 -0.70313,0.0781 -0.33203,0.0781 -0.70312,0.3125 -0.35157,0.23438 -0.78125,0.66406 -0.42969,0.42969 -1.01563,1.13282 -0.56641,0.70312 -1.30859,1.71875 -0.74219,1.01562 -1.73828,2.42187 -0.48829,0.6836 -1.15235,1.50391 -0.66406,0.82031 -1.36719,1.5625 -0.68359,0.74219 -1.34765,1.30859 -0.66406,0.56641 -1.17188,0.72266 -1.71875,-0.3711 -1.71875,-4.27735 0,-1.03515 0.23438,-3.14453 0.11719,-0.95703 0.27344,-1.99218 0.15625,-1.05469 0.39062,-2.08985 0.23438,-1.05469 0.52734,-2.03125 0.3125,-0.99609 0.72266,-1.83594 0.19531,-0.39062 0.41016,-0.60546 0.21484,-0.23438 0.42968,-0.33204 0.23438,-0.11718 0.46875,-0.13671 0.25391,-0.0391 0.50782,-0.0391 0.3125,0 0.54687,0.42969 0.25391,0.42969 0.25391,1.19141 0,0.46875 -0.0781,0.8789 -0.0781,0.41016 -0.21484,0.83985 -0.13672,0.42968 -0.29297,0.9375 -0.15625,0.48828 -0.3125,1.13281 -0.11719,0.52734 -0.27344,1.17187 -0.13672,0.64454 -0.27343,1.3086 -0.11719,0.66406 -0.21485,1.30859 -0.0781,0.625 -0.0781,1.13281 0,0.35157 0.11718,0.72266 0.54688,-0.0586 1.79688,-1.64062 0.64453,-0.80079 1.40625,-1.75782 0.78125,-0.95703 1.67969,-2.10937 0.66406,-0.85938 1.30859,-1.60156 0.66406,-0.74219 1.36719,-1.28907 0.70312,-0.5664 1.48437,-0.8789 0.80078,-0.33203 1.75782,-0.33203 1.01562,0 1.67968,0.44921 0.6836,0.42969 1.09375,1.21094 0.41016,0.76172 0.625,1.83594 0.23438,1.07422 0.3711,2.36328 0.11718,1.09375 0.21484,2.16797 0.11719,1.07422 0.42969,1.93359 0.3125,0.83985 0.89844,1.36719 0.58593,0.52734 1.67968,0.52734 0.83985,0 1.75782,-0.39062 0.91796,-0.39063 1.93359,-1.07422 1.01562,-0.70312 2.08984,-1.64062 1.09375,-0.9375 2.2461,-2.05079 0.44922,-0.42968 0.97656,-1.07421 0.54687,-0.66407 1.05469,-1.26954 0.52734,-0.60546 0.97656,-1.03515 0.44922,-0.42969 0.72266,-0.42969 0.11718,0 0.37109,0.11719 0.27344,0.11719 0.27344,0.39062 z"
         style="fill:#37c8ab"
         id="path24" />
      <path
         d="m 254.43945,447.28032 q 0,0.25391 -0.11718,0.52735 -0.11719,0.27343 -0.23438,0.50781 -0.42969,0.82031 -1.11328,1.79687 -0.66406,0.95703 -1.46484,1.95313 -0.78125,0.97656 -1.64063,1.89453 -0.83984,0.91797 -1.60156,1.62109 -0.64453,0.60547 -1.46485,1.34766 -0.82031,0.74219 -1.69921,1.38672 -0.87891,0.64453 -1.77735,1.09375 -0.89844,0.42969 -1.69922,0.42969 -0.41015,0 -0.99609,-0.27344 -1.21094,-0.54688 -1.95313,-2.07031 -0.35156,-0.76172 -0.5664,-1.48438 -0.21485,-0.72266 -0.33203,-1.48437 -0.11719,-0.76172 -0.19532,-1.60157 -0.0781,-0.85937 -0.17578,-1.89453 -2.4414,4.55078 -6.32812,8.08594 -3.88672,3.55469 -8.08594,3.55469 -1.15234,0 -1.75781,-1.23047 -0.60547,-1.23047 -0.60547,-2.51953 0,-1.75782 0.29297,-2.61719 0.82031,-2.5 1.875,-4.6875 1.07422,-2.1875 2.59765,-4.29688 0.48829,-0.68359 1.05469,-1.36718 0.56641,-0.6836 1.21094,-1.36719 1.28906,-1.36719 2.42187,-1.95313 1.40625,-0.76171 4.04297,-0.76171 0.91797,0 1.5625,1.01562 0.66407,1.05469 0.97657,2.36328 0.33203,1.36719 0.33203,2.22656 0.29297,-0.95703 0.52734,-1.93359 0.23438,-0.99609 0.41016,-2.05078 0.17578,-1.05469 0.3125,-2.20703 0.15625,-1.17188 0.27343,-2.5 0.0391,-0.35156 0.0781,-0.89844 0.0391,-0.54687 0.0977,-1.28906 0.11718,-1.52344 0.23437,-2.5586 0.11719,-1.05468 0.3125,-1.36718 0.44922,-0.80078 1.64063,-0.80078 0.5664,0 1.15234,0.2539 0.60547,0.23438 0.60547,0.66406 0,0.23438 -0.0977,0.76172 -0.0781,0.52735 -0.23437,1.36719 -0.15625,0.83984 -0.42969,2.08984 -0.25391,1.25 -0.56641,2.94922 -0.19531,1.17188 -0.37109,2.14844 -0.15625,0.97656 -0.29297,1.77734 -0.25391,1.58204 -0.41016,2.96875 -0.15625,1.38672 -0.15625,2.8125 0,0.15625 0.0195,0.74219 0.0195,0.56641 0.0781,1.36719 0.0586,0.78125 0.13672,1.66016 0.0977,0.8789 0.25391,1.62109 0.15625,0.74219 0.37109,1.23047 0.21484,0.48828 0.50781,0.48828 0.41016,0 0.72266,-0.0781 0.33203,-0.0781 0.68359,-0.2539 0.35156,-0.17578 0.76172,-0.42969 0.41016,-0.27344 0.97656,-0.64453 0.56641,-0.37109 1.21094,-0.91797 0.66406,-0.54687 1.32813,-1.15234 0.66406,-0.625 1.26953,-1.25 0.625,-0.625 1.11328,-1.15235 1.17187,-1.25 2.22656,-2.5 1.07422,-1.25 1.89453,-2.1289 0.0586,-0.0586 0.29297,-0.0977 0.25391,-0.0586 0.29297,-0.0586 0.11719,0 0.15625,0.13672 0.0391,0.11718 0.0586,0.29296 0.0195,0.17579 0,0.39063 0,0.19531 0,0.35156 z m -19.04297,3.10547 q -0.50781,-0.11719 -0.78125,-0.50781 -0.2539,-0.39063 -0.2539,-0.87891 0,-0.39062 0.11719,-1.15234 0.11718,-0.76172 0.11718,-1.17188 0,-0.35156 -0.19531,-0.78125 -0.17578,-0.44922 -0.46875,-0.82031 -0.29297,-0.39062 -0.66406,-0.64453 -0.35156,-0.27344 -0.70313,-0.27344 -1.03515,0 -2.8125,2.16797 -0.89843,1.09375 -1.66015,2.12891 -0.74219,1.01562 -1.36719,2.01172 -0.66406,1.09375 -1.15234,1.99218 -0.48829,0.87891 -0.82032,1.58203 -1.15234,2.46094 -1.15234,3.90625 0,1.81641 1.23047,1.81641 1.09375,0 3.00781,-1.26953 1.93359,-1.30859 3.04688,-2.42188 1.11328,-1.15234 1.85546,-1.95312 0.74219,-0.82031 1.17188,-1.30859 0.83984,-0.97657 1.48437,-2.42188 z"
         style="fill:#0066ff"
         id="path26" />
      <path
         d="m 275.5332,456.30376 q 0,0.17578 -0.0781,0.41016 -0.0781,0.23437 -0.19531,0.48828 -0.11719,0.2539 -0.25391,0.48828 -0.13672,0.21484 -0.25391,0.39062 -0.37109,0.50782 -0.9375,1.01563 -0.54687,0.50781 -1.25,0.9375 -0.68359,0.41015 -1.5039,0.68359 -0.80078,0.25391 -1.67969,0.25391 -1.13281,0 -2.08984,-0.3711 -0.9375,-0.39062 -1.67969,-1.21093 -0.72266,-0.82032 -1.25,-2.12891 -0.50781,-1.30859 -0.80078,-3.16406 -0.54688,0.72265 -1.28907,1.67969 -0.72265,0.95703 -1.60156,1.95312 -0.85937,0.99609 -1.83594,1.97266 -0.95703,0.95703 -1.93359,1.71875 -0.97656,0.76172 -1.93359,1.23047 -0.9375,0.46875 -1.79688,0.46875 -0.19531,0 -0.64453,-0.25391 -0.42969,-0.27344 -0.89844,-0.68359 -0.46875,-0.41016 -0.8789,-0.9375 -0.41016,-0.52735 -0.54688,-1.05469 -0.33203,-1.15235 -0.33203,-2.34375 0,-1.21094 0.19531,-2.38281 0.23438,-1.3086 0.6836,-2.73438 0.46875,-1.42578 0.95703,-2.77344 0.48828,-1.36718 0.8789,-2.57812 0.39063,-1.23047 0.46875,-2.14844 0.0781,-0.13672 0.3125,-0.3125 0.23438,-0.19531 0.50782,-0.35156 0.27343,-0.17578 0.52734,-0.27344 0.27344,-0.11719 0.42969,-0.11719 0.23437,0 0.50781,0.15625 0.27344,0.15625 0.50781,0.39063 0.23438,0.23437 0.3711,0.48828 0.15625,0.25391 0.15625,0.44922 0,0.15625 -0.11719,0.52734 -0.0977,0.3711 -0.27344,0.85938 -0.17578,0.46875 -0.41015,0.99609 -0.23438,0.50781 -0.46875,0.9375 -0.44922,1.03516 -0.89844,1.97266 -0.42969,0.91797 -0.78125,1.85547 -0.35156,0.91796 -0.58594,1.93359 -0.21484,0.99609 -0.21484,2.1875 0,0.3125 0.0781,0.80078 0.0781,0.46875 0.21485,0.9375 0.15625,0.44922 0.37109,0.78125 0.23437,0.3125 0.54687,0.3125 0.3125,0 0.70313,-0.15625 0.39062,-0.15625 0.80078,-0.37109 0.41016,-0.23438 0.78125,-0.48828 0.39063,-0.27344 0.68359,-0.48829 0.76172,-0.5664 1.52344,-1.32812 0.78125,-0.76172 1.44531,-1.54297 0.6836,-0.78125 1.21094,-1.46484 0.54688,-0.70313 0.82031,-1.13282 0.42969,-0.68359 0.80079,-1.48437 0.39062,-0.82031 0.72265,-1.62109 0.35156,-0.82032 0.70313,-1.58204 0.35156,-0.78125 0.72265,-1.36718 0.39063,-0.58594 0.82032,-0.9375 0.42968,-0.3711 0.97656,-0.3711 0.42969,0 0.64453,0.15625 0.23437,0.15625 0.33203,0.39063 0.11719,0.23437 0.13672,0.50781 0.0195,0.27344 0.0195,0.50781 0,0.15625 -0.23437,0.70313 -0.23438,0.52734 -0.50782,1.28906 -0.27343,0.74219 -0.50781,1.64063 -0.23437,0.8789 -0.23437,1.73828 0,1.26953 0.27343,2.34375 0.27344,1.07422 0.76172,1.875 0.48828,0.80078 1.15235,1.25 0.68359,0.44922 1.48437,0.44922 0.87891,0 1.89453,-0.33204 1.01563,-0.33203 1.97266,-1.03515 0.0586,-0.0586 0.23437,-0.21485 0.19532,-0.17578 0.41016,-0.35156 0.23437,-0.17578 0.42969,-0.3125 0.19531,-0.13672 0.29297,-0.13672 0.15625,0 0.29296,0.0977 0.13672,0.0977 0.13672,0.3125 z"
         style="fill:#ff6600"
         id="path28" />
    </g>
  </g>
</svg>
