<?xml version="1.0" encoding="UTF-8" standalone="no"?>
<!-- Created with Inkscape (http://www.inkscape.org/) -->

<svg
   xmlns:dc="http://purl.org/dc/elements/1.1/"
   xmlns:cc="http://creativecommons.org/ns#"
   xmlns:rdf="http://www.w3.org/1999/02/22-rdf-syntax-ns#"
   xmlns:svg="http://www.w3.org/2000/svg"
   xmlns="http://www.w3.org/2000/svg"
   xmlns:sodipodi="http://sodipodi.sourceforge.net/DTD/sodipodi-0.dtd"
   xmlns:inkscape="http://www.inkscape.org/namespaces/inkscape"
   width="841mm"
   height="1189mm"
   viewBox="0 0 841 1189"
   version="1.1"
   id="svg98"
   inkscape:version="0.92.4 (5da689c313, 2019-01-14)"
   sodipodi:docname="app_title1.svg">
  <defs
     id="defs92" />
  <sodipodi:namedview
     id="base"
     pagecolor="#ffffff"
     bordercolor="#666666"
     borderopacity="1.0"
     inkscape:pageopacity="0.0"
     inkscape:pageshadow="2"
     inkscape:zoom="0.0875"
     inkscape:cx="1018.9132"
     inkscape:cy="1931.4286"
     inkscape:document-units="mm"
     inkscape:current-layer="flowRoot100"
     showgrid="false"
     inkscape:window-width="1366"
     inkscape:window-height="705"
     inkscape:window-x="-8"
     inkscape:window-y="-8"
     inkscape:window-maximized="1" />
  <metadata
     id="metadata95">
    <rdf:RDF>
      <cc:Work
         rdf:about="">
        <dc:format>image/svg+xml</dc:format>
        <dc:type
           rdf:resource="http://purl.org/dc/dcmitype/StillImage" />
        <dc:title></dc:title>
      </cc:Work>
    </rdf:RDF>
  </metadata>
  <g
     inkscape:label="Layer 1"
     inkscape:groupmode="layer"
     id="layer1"
     transform="translate(0,892)">
    <g
       aria-label="Chandu"
       transform="matrix(7.3697317,0,0,9.1205316,-1708.9824,-16355.793)"
       style="font-style:normal;font-variant:normal;font-weight:normal;font-stretch:normal;font-size:40px;line-height:1.25;font-family:Mistral;-inkscape-font-specification:'Mistral, Normal';font-variant-ligatures:normal;font-variant-caps:normal;font-variant-numeric:normal;font-feature-settings:normal;text-align:start;letter-spacing:0px;word-spacing:0px;writing-mode:lr-tb;text-anchor:start;fill:#000000;fill-opacity:1;stroke:none"
       id="flowRoot100">
      <path
         d="m 259.10156,1769.624 q -0.58594,0.4492 -1.46484,1.0352 -0.85938,0.5859 -2.03125,1.289 -1.05469,0.6055 -1.875,1.0547 -0.80078,0.4297 -1.34766,0.6445 -0.80078,0.3711 -1.69922,0.5274 -0.89843,0.1758 -1.83593,0.1758 -0.29297,0 -0.66407,-0.098 -0.35156,-0.078 -0.76172,-0.1953 -0.50781,-0.1367 -0.85937,-0.2344 -0.35156,-0.098 -0.58594,-0.1172 l -0.23437,-0.2343 -0.56641,-0.078 q -0.37109,-0.019 -0.89844,-0.3711 -0.50781,-0.3515 -1.11328,-0.9765 -0.58594,-0.586 -0.95703,-1.1133 -0.35156,-0.5273 -0.50781,-0.957 l -0.52735,-1.6797 q -0.27343,-0.8594 -0.41015,-1.3867 -0.13672,-0.5274 -0.11719,-0.6836 l 0.21484,-0.8789 q -0.15625,-0.4493 -0.2539,-0.7422 -0.0781,-0.293 -0.0781,-0.4492 0,-0.1563 0.0977,-0.9571 0.0977,-0.8008 0.27344,-2.2265 0.13672,-0.2735 0.29297,-0.6641 0.15625,-0.3906 0.29296,-0.8789 l -0.0586,-0.4297 q 0,-0.1562 0.0586,-0.3516 0.0781,-0.2148 0.19532,-0.4687 0.44922,-0.957 0.89843,-1.9336 0.44922,-0.9766 0.89844,-1.8945 0.39063,-0.7032 0.9961,-1.4453 0.625,-0.7422 1.42578,-1.543 0.17578,-0.1953 0.42968,-0.5078 0.25391,-0.3125 0.60547,-0.6836 0.33203,-0.1953 0.80078,-0.586 0.48829,-0.4101 1.15235,-1.0351 0.19531,-0.078 0.46875,-0.2149 0.27344,-0.1367 0.66406,-0.332 0.0977,-0.059 0.23438,-0.1953 0.15625,-0.1367 0.35156,-0.293 0.21484,-0.1953 1.5625,-0.5859 1.34765,-0.3906 1.75781,-0.3906 0.89844,0 1.52344,0.1367 0.625,0.1172 0.99609,0.3906 l 0.625,0.1172 q 0.78125,0.1758 1.15235,1.1914 0.37109,1.0156 0.37109,2.9297 0,0.8984 -0.0195,1.4453 -0.0195,0.5273 -0.0586,0.7227 -0.11718,0.5859 -0.27343,1.4843 -0.13672,0.8789 -0.3711,2.0508 -0.0195,0.3125 -0.27343,1.0352 -0.23438,0.7031 -0.625,1.7578 -0.41016,1.1523 -0.70313,1.7578 -0.29297,0.5859 -0.48828,0.6445 -0.78125,0.1953 -1.67969,0.4297 -0.42969,0 -0.60547,-0.059 -0.17578,-0.078 -0.17578,-0.2344 0,-0.1367 0.0586,-0.4296 0.0781,-0.293 0.0781,-0.4102 -0.0586,-0.7422 -0.11719,-1.5039 0,-0.2734 0.15625,-1.0742 0.15625,-0.8008 0.46875,-2.0508 0.33203,-1.3672 0.58594,-2.1484 0.25391,-0.8008 0.41016,-0.9961 0.5664,-0.5274 0.82031,-0.9961 0.27344,-0.4883 0.27344,-0.8789 0,-0.5469 -0.27344,-0.9571 -0.25391,-0.4101 -0.78125,-0.625 -0.50781,-0.1172 -1.03516,-0.2148 -0.50781,-0.1172 -1.01562,-0.2734 -0.41016,0.1562 -0.74219,0.2343 -0.3125,0.078 -0.54687,0.1367 -1.3086,0.2149 -2.51954,1.211 -1.1914,0.9961 -2.28515,2.7539 -0.89844,1.5234 -1.44531,3.0664 -0.54688,1.5234 -0.74219,3.0664 -0.0781,0.4688 -0.19531,1.1719 -0.11719,0.6836 -0.33204,1.6211 0.17579,0.5859 0.3125,1.0742 l -0.19531,1.7773 q 0,0.098 0.17578,0.4102 0.17578,0.293 0.54688,0.8789 0.21484,0.332 0.39062,0.7812 0.17578,0.4493 0.27344,1.0157 0.0391,0.1367 0.13672,0.2929 0.11719,0.1563 0.25391,0.2539 0.29296,0.254 0.5664,0.4493 0.83985,0.8984 1.77735,1.3672 0.95703,0.4492 2.03125,0.4492 0.0977,0 0.72265,-0.098 0.64453,-0.098 1.75781,-0.3125 0.19532,-0.1367 0.50782,-0.2734 0.33203,-0.1367 0.78125,-0.293 0.39062,-0.3906 0.78125,-0.5469 0.39062,-0.1757 0.72265,-0.1757 0.0977,-0.1368 0.23438,-0.3321 0.15625,-0.1953 0.39062,-0.4297 0.58594,-0.2343 1.07422,-0.6054 0.48828,-0.3907 0.9375,-0.8985 0.78125,1.6992 0.78125,1.7969 z"
         style="fill:#ff0000"
         id="path108" />
      <path
         d="m 258.28125,1767.8271 q 0.42969,-0.3711 0.66406,-0.5859 0.23438,-0.2149 0.3711,-0.3711 0.3125,-0.293 0.50781,-0.5664 0.19531,-0.2734 0.21484,-0.4883 0.17578,-0.6641 0.41016,-1.6601 0.23437,-0.9961 0.60547,-2.3047 0.17578,-0.3907 0.37109,-0.9766 0.21484,-0.6055 0.44922,-1.3477 0.23437,-0.9765 0.58594,-1.7773 0.35156,-0.8008 0.78125,-1.4453 0.13672,-0.1758 0.27343,-0.4297 0.13672,-0.2734 0.27344,-0.625 0.13672,-0.3125 0.3711,-0.7227 0.2539,-0.4296 0.5664,-0.996 0.80078,-1.1719 1.40625,-2.0118 0.60547,-0.8398 0.9961,-1.3476 0.70312,-0.8399 1.40625,-1.5625 0.72265,-0.7422 1.44531,-1.3672 0.66406,-0.5664 1.15234,-0.8203 0.48828,-0.2735 0.78125,-0.2735 0.27344,0.2344 0.39063,0.4297 0.13672,0 0.27343,-0.039 0.50782,0 0.74219,0.4101 0.23438,0.4102 0.23438,1.211 0,0.1757 -0.0586,0.4687 -0.0586,0.2734 -0.15625,0.6836 -0.13672,0.1367 -0.19531,0.3516 -0.0586,0.2148 -0.0977,0.4297 -0.0195,0.2734 -0.0586,0.4687 -0.0391,0.1953 -0.0977,0.3516 -0.2539,0.4687 -0.54687,1.1523 -0.29297,0.6641 -0.625,1.5625 -0.19531,0.332 -0.48828,0.8789 -0.29297,0.5469 -0.70313,1.211 -0.19531,0.371 -0.50781,0.9375 -0.29297,0.5468 -0.76172,1.2695 -0.11719,0.2734 -0.41015,0.6055 -0.27344,0.3125 -0.66407,0.7421 -0.11718,0.3125 -0.66406,1.0743 -0.52734,0.7617 -1.48437,1.9726 -0.46875,0.6055 -1.21094,1.5039 -0.74219,0.8985 -1.71875,2.1289 -0.3711,1.4649 -0.56641,2.6172 -0.17578,1.1328 -0.17578,1.9727 0,0.332 0.0391,0.5078 0.0586,0.1562 0.19532,0.1562 0.0976,-0.1367 0.27343,-0.3125 0.19532,-0.1757 0.39063,-0.4101 0.37109,-0.3321 0.85937,-1.2305 0.50782,-0.8984 1.15235,-2.3242 0.5664,-1.2891 1.01562,-1.9727 0.44922,-0.7031 0.74219,-0.8398 l 0.68359,-0.293 q 0.19532,-0.078 0.35157,-0.1367 0.15625,-0.059 0.2539,-0.059 0.25391,0 0.46875,0.3125 0.21485,0.3125 0.35156,0.8594 0.25391,0.9961 0.41016,1.543 0.15625,0.5273 0.17578,0.625 0.25391,0.5859 0.60547,0.8593 0.37109,0.2735 0.87891,0.2735 0.60547,-0.098 1.42578,-0.2735 0.15625,0.3907 0.35156,0.8399 0.21484,0.4492 0.42969,0.957 -0.46875,0.3125 -0.95703,0.6055 -0.46875,0.2929 -0.9375,0.5859 -0.3125,0.1758 -0.89844,0.2734 -0.58594,0.078 -1.36719,0.078 -1.1914,0 -1.85547,-1.1133 -0.64453,-1.1328 -0.78125,-1.1133 h -0.11718 q -0.3125,0.3906 -0.66407,0.8008 -0.33203,0.4101 -0.66406,0.8594 -0.21484,0.4492 -0.60547,1.0351 -0.39062,0.586 -0.9375,1.2891 -0.64453,0.7812 -1.13281,1.1719 -0.48828,0.3906 -0.83984,0.3906 -0.74219,0 -1.17188,-0.1758 -0.41016,-0.1562 -0.48828,-0.4883 -0.23438,-1.0937 -0.37109,-1.8945 -0.11719,-0.8203 -0.11719,-1.3867 0,-0.1758 0.0195,-0.3125 0.0195,-0.1367 0.0391,-0.2539 0.0586,-0.2539 0.13672,-0.5469 0,-0.098 -0.0586,-0.1367 -0.0391,-0.059 -0.15625,-0.059 -0.0586,0.078 -0.15625,0.1758 -0.0977,0.098 -0.27344,0.2148 -0.0781,-0.2539 -0.27344,-0.7031 -0.19531,-0.4492 -0.50781,-1.0938 z m 12.69531,-18.0468 q -0.21484,0 -0.85937,0.7812 -0.64453,0.7617 -1.64063,2.2656 -0.5664,0.8399 -1.11328,1.6797 -0.54687,0.8203 -1.07422,1.6211 -0.23437,0.2344 -0.35156,0.4688 -0.0977,0.2343 -0.0977,0.4882 -0.39062,1.0938 -0.76172,2.0508 -0.35156,1.0352 -0.58593,1.6016 -0.21485,0.5664 -0.25391,0.664 l 0.0977,0.098 q 0.39062,-0.3516 0.66406,-0.7422 0.39062,-0.4492 0.9375,-1.1523 0.56641,-0.7227 1.26953,-1.6797 0.70313,-0.8985 1.44531,-2.2656 0.74219,-1.3868 1.60157,-3.1836 0.48828,-0.9766 0.72265,-1.5625 0.25391,-0.586 0.25391,-0.8203 0,-0.1368 -0.0586,-0.2149 -0.0391,-0.098 -0.19531,-0.098 z"
         style="fill:#0000ff"
         id="path110" />
      <path
         d="m 273.28125,1766.9678 1.77734,-1.1719 q 0.0977,-0.098 0.23438,-0.2539 0.13672,-0.1758 0.3125,-0.4883 0.13672,-0.2539 0.35156,-0.4297 0.23438,-0.1758 0.52734,-0.3125 0.15625,-0.1953 0.44922,-0.4883 0.29297,-0.2929 0.74219,-0.6836 0.21484,-0.1172 0.54688,-0.332 0.33203,-0.2344 0.72265,-0.6055 1.77735,-1.6797 3.10547,-2.5195 1.34766,-0.8398 2.26563,-0.8398 0.50781,0 0.74218,0.2148 0.25391,0.2148 0.25391,0.6055 0,0.4101 -0.15625,0.7226 -0.13672,0.3125 -0.44922,0.5274 -0.48828,0.3515 -1.05469,0.7812 -0.3125,0.4102 -0.76172,0.8789 -0.44921,0.4492 -1.05468,0.8985 -0.19532,0.2539 -0.33203,0.4492 -0.0977,0.098 -0.3711,0.3515 -0.27344,0.2539 -0.72265,0.586 -0.19532,0.4297 -0.85938,1.1133 -0.64453,0.6836 -1.73828,1.6406 -0.13672,0.1367 -0.48828,0.625 -0.35156,0.4883 -0.91797,1.289 l 0.13672,0.1758 q 0.42969,-0.1367 0.89844,-0.4687 0.46875,-0.3321 1.03515,-0.8789 0.66406,-0.6055 1.07422,-0.9766 0.42969,-0.3906 0.60547,-0.5078 0.13672,-0.078 0.27344,-0.1563 0.13672,-0.078 0.3125,-0.1953 0.89843,-1.0742 1.67968,-1.582 0.78125,-0.5273 1.44532,-0.5273 0.41015,0 0.625,0.332 0.21484,0.3125 0.2539,0.957 -0.0391,0.9766 -0.0391,1.875 -0.0195,0.625 0.33203,1.1328 0.3711,0.4883 0.95703,0.4883 0.17578,0 0.33203,-0.098 0.17579,-0.098 0.35157,-0.2539 0.13672,-0.1758 0.2539,-0.3321 0.13672,-0.1562 0.27344,-0.3125 0.0781,-0.039 0.21484,-0.1367 0.15625,-0.098 0.29297,-0.2344 0.27344,0.586 0.44922,1.0352 0.19531,0.4297 0.29297,0.7617 -0.44922,0.4102 -0.89844,0.8594 -0.42968,0.4297 -0.91797,0.8203 -0.58593,0.4492 -1.13281,0.6836 -0.54687,0.2148 -1.09375,0.2148 -1.26953,0 -1.95312,-0.7226 -0.6836,-0.7227 -0.80078,-2.1875 0,-0.1758 -0.0586,-0.3516 -0.0391,-0.1953 -0.19531,-0.3906 -0.0977,0.098 -0.21484,0.2148 -0.11719,0.098 -0.27344,0.2735 -0.25391,0.1953 -0.64453,0.4882 -0.3711,0.293 -0.87891,0.7032 -0.68359,0.7031 -1.15234,1.1523 -0.46875,0.4492 -0.66407,0.6445 -0.39062,0.3321 -0.91796,0.6641 -0.50782,0.332 -1.15235,0.6836 -0.41015,0.2148 -0.70312,0.332 -0.29297,0.1368 -0.42969,0.1368 -0.9375,0 -1.38672,-0.4493 -0.44922,-0.4687 -0.44922,-1.4257 0,-0.5274 0.23438,-0.9961 0.21484,-0.4883 0.66406,-0.9375 0.0391,-0.2539 0.0391,-0.4102 0,-0.098 -0.0586,-0.1953 -0.0391,-0.1172 -0.11719,-0.2539 -0.11719,-0.2735 -0.25391,-0.6055 -0.15625,-0.3515 -0.33203,-0.7422 0.0781,-0.078 0.23438,-0.2929 0.13672,-0.2344 0.33203,-0.5664 z"
         style="fill:#c83737"
         id="path112" />
      <path
         d="m 287.65625,1767.8271 q 0.0781,-0.1367 0.21484,-0.2929 0.11719,-0.1758 0.29297,-0.4102 0.19531,-0.1562 0.50781,-0.4492 0.3125,-0.293 0.70313,-0.6836 0.35156,-0.3906 0.85937,-0.957 0.50782,-0.586 1.23047,-1.4063 0.3125,-0.332 0.78125,-0.8398 0.46875,-0.5274 1.11328,-1.25 0.54688,-0.6446 1.17188,-0.9571 0.625,-0.3125 1.32812,-0.3125 0.70313,0 1.03516,0.4493 0.33203,0.4296 0.33203,1.2695 0,0.4492 -0.33203,1.7187 -0.33203,1.2696 -1.03516,3.3594 -0.17578,0.3906 -0.33203,0.7422 -0.11718,0.2539 -0.15625,0.4492 -0.0391,0.1953 -0.0391,0.293 0,0.1172 0.13672,0.293 0.0977,-0.059 0.17578,-0.1563 0.0977,-0.098 0.21484,-0.2344 0.15625,-0.2929 0.46875,-0.6054 0.33204,-0.3321 0.78125,-0.7227 0.17579,-0.332 0.44922,-0.6445 0.29297,-0.3321 0.64453,-0.6055 0.0781,-0.078 0.19532,-0.2539 0.13672,-0.1758 0.3125,-0.3711 0.2539,-0.2539 0.60547,-0.5273 0.35156,-0.2735 0.82031,-0.5664 0.52734,-0.2735 0.9375,-0.4297 0.42969,-0.1563 0.74219,-0.1563 0.60546,0 1.07421,0.293 0.46875,0.293 0.80079,0.918 0.39062,1.2109 0.74218,2.246 0.21485,0.6055 0.46875,0.8985 0.27344,0.293 0.60547,0.293 0.25391,0 0.44922,-0.098 0.21484,-0.098 0.39063,-0.293 l 0.78125,1.7969 q -0.33204,0.2734 -0.6836,0.5664 -0.35156,0.293 -0.68359,0.5664 -0.44922,0.4102 -0.83985,0.586 -0.39062,0.1562 -0.78125,0.1562 -0.44921,0 -0.85937,-0.1953 -0.41016,-0.1953 -0.70313,-0.5859 -0.15625,-0.1563 -0.39062,-0.5665 -0.23438,-0.4296 -0.54688,-1.0546 -0.2539,-0.2539 -0.58593,-0.6641 -0.3125,-0.4297 -0.74219,-0.9961 l -0.17578,-0.059 q -0.3711,0.1172 -0.74219,0.3516 -0.35156,0.2343 -0.76172,0.6054 -0.8789,0.7813 -1.26953,0.9766 -0.39062,0.1953 -0.52734,0.4492 -0.27344,0.4688 -0.9375,1.211 -0.66407,0.7421 -1.66016,1.7578 -0.25391,0.2539 -0.50781,0.5078 -0.25391,0.2344 -0.50781,0.4687 -0.25391,0.2149 -0.58594,0.293 -0.3125,0.098 -0.70313,0.098 -0.78125,0 -0.85937,-0.5274 -0.0586,-0.5469 -0.11719,-1.0937 0.29297,-0.8203 0.66406,-2.0508 0.3711,-1.2305 0.85938,-2.8711 0,-0.098 0.0586,-0.2539 0.0781,-0.1758 0.17578,-0.4492 0.0977,-0.2539 0.13672,-0.4297 0.0391,-0.1953 0.0391,-0.3321 0,-0.1367 -0.0976,-0.2148 -0.0977,-0.078 -0.3125,-0.078 -0.19531,0 -0.52735,0.2344 -0.3125,0.2343 -0.76171,0.7421 -0.54688,0.586 -0.87891,0.918 -0.33203,0.332 -0.44922,0.3906 -0.19531,0.1368 -0.46875,0.3907 -0.25391,0.2539 -0.58594,0.5664 -0.0391,0.078 -0.11718,0.2343 -0.0781,0.1563 -0.25391,0.3516 -0.0781,-0.293 -0.27344,-0.7227 -0.19531,-0.4296 -0.50781,-1.0742 z"
         style="fill:#00aad4"
         id="path114" />
      <path
         d="m 306.32812,1767.8271 0.11719,-0.1367 0.0586,-0.1953 q 0.35156,-0.4297 0.60546,-0.6641 0.25391,-0.2539 0.39063,-0.3906 0.0977,-0.098 0.42969,-0.2539 0.33203,-0.1562 0.89843,-0.3906 l 0.25391,-0.1563 q 0.13672,-0.2148 0.48828,-0.625 0.35156,-0.4101 0.83985,-0.9375 0.0976,-0.1172 0.29296,-0.2539 0.19532,-0.1367 0.41016,-0.3515 0.46875,-0.4493 0.9375,-0.918 0.46875,-0.4883 0.87891,-0.957 0.17578,-0.1758 0.72265,-0.625 0.54688,-0.4688 1.48438,-1.2891 0.13672,-0.098 0.48828,-0.2734 0.35156,-0.1954 0.91797,-0.4493 0.2539,-0.1171 0.37109,-0.3711 0.13672,-0.2734 0.13672,-0.6835 0.15625,-0.254 0.29297,-0.6055 0.15625,-0.3711 0.29297,-0.8594 0.19531,-0.6055 0.29297,-0.9766 0.11718,-0.3906 0.17578,-0.5273 0.33203,-0.8789 0.89844,-2.0508 0.5664,-1.1914 1.34765,-2.7148 0.39063,-0.8008 0.91797,-1.7774 0.33203,-0.4882 0.74219,-0.7226 0.41015,-0.2539 0.85937,-0.2539 0.35157,0 0.50782,0.2734 0.17578,0.2734 0.17578,0.8008 0,0.8398 -0.11719,1.6016 -0.11719,0.7617 -0.42969,1.4257 -0.0586,0.1368 -0.0976,0.4102 -0.0391,0.2734 -0.0781,0.6641 -0.0195,0.2734 -0.15625,0.5273 -0.11719,0.2539 -0.3125,0.4687 0,0.1368 -0.0391,0.3321 -0.0391,0.1758 -0.0781,0.4297 l -0.27343,0.3515 q -0.0391,0.1172 -0.0391,0.293 0,0.1562 0,0.332 0,0.1172 -0.13672,0.4688 -0.13671,0.332 -0.41015,0.957 -0.3125,0.6641 -0.50781,1.0547 -0.17579,0.3906 -0.19532,0.4883 -0.0781,0.098 -0.21484,0.3125 -0.11719,0.2148 -0.29297,0.4883 l 0.0586,0.4296 -1.25,4.4922 q 0,0.7422 0.0195,1.2696 0.0195,0.5273 0.11718,0.8398 0.0977,0.332 0.3125,0.8203 0.23438,0.4688 0.58594,1.0156 0.21484,0.3711 0.50781,0.5469 0.29297,0.1563 0.625,0.1563 0.3711,0 0.74219,-0.1953 0.39063,-0.2149 0.78125,-0.6446 0.23438,0.5078 0.42969,0.9571 0.21484,0.4492 0.35156,0.8398 -0.0977,0.059 -0.42969,0.4102 -0.3125,0.332 -0.83984,0.957 -0.3125,0.3711 -0.78125,0.5469 -0.44922,0.1562 -1.11328,0.1562 -1.46485,0 -2.38281,-0.7617 -0.91797,-0.7617 -1.28907,-2.2852 -0.0781,-0.3125 -0.13672,-0.5468 -0.0586,-0.2344 -0.11718,-0.4297 -0.13672,-0.3711 -0.46875,-0.8008 -0.13672,0.1953 -0.21485,0.293 -0.23437,0.1562 -0.52734,0.4492 -0.27344,0.293 -0.56641,0.7422 -0.0586,0.1953 -0.21484,0.4883 -0.15625,0.2734 -0.42969,0.664 -0.625,0.7227 -1.26953,1.4649 -0.64453,0.7226 -1.28906,1.4257 -0.87891,0.9766 -1.6211,1.4258 -0.74218,0.4688 -1.28906,0.4688 -0.97656,0 -1.44531,-0.4688 -0.46875,-0.4492 -0.46875,-1.4258 0,-0.4492 0.33203,-1.25 0.33203,-0.8203 0.33203,-1.2109 l -0.11719,-0.3125 z m 9.82422,-5.5859 q 0,-0.098 -0.0781,-0.293 -0.29297,0.293 -0.72266,0.6836 -0.42969,0.3906 -1.01562,0.8594 -0.13672,0.3125 -0.625,0.9961 -0.48828,0.664 -1.36719,1.6601 -0.25391,0.293 -0.68359,1.0157 -0.42969,0.7031 -1.05469,1.7382 -0.21485,0.4102 -0.44922,0.9961 0,0.1172 0.15625,0.2539 0.58594,-0.1757 1.42578,-1.0156 0.85938,-0.8594 2.03125,-2.3633 1.21094,-1.6015 1.79688,-2.7148 0.58593,-1.1328 0.58593,-1.8164 z"
         style="fill:#ff00cc"
         id="path116" />
      <path
         d="m 322.65625,1767.8271 q 0.0781,-0.059 0.13672,-0.1367 0.0391,-0.078 0.0391,-0.1953 0.33203,-0.2734 0.74219,-0.7422 0.42969,-0.4883 0.95703,-1.1328 0.42969,-0.5859 0.87891,-1.1719 0.46875,-0.5859 0.99609,-1.1719 0.42969,-0.5859 0.83984,-1.2109 0.42969,-0.6445 0.89844,-1.25 0.78125,-0.3711 1.21094,-0.5273 0.42969,-0.1563 0.58594,-0.1563 0.29296,0 0.44921,0.1953 0.15625,0.1758 0.15625,0.5274 0,0.1172 -0.0586,0.332 -0.0586,0.2148 -0.13672,0.4688 -0.13672,0.3906 -0.3125,0.8007 -0.15625,0.6836 -0.37109,1.3672 -0.21485,0.6836 -0.41016,1.3477 -0.19531,0.8398 -0.3125,1.5429 -0.0976,0.7032 -0.0976,1.2891 0,1.0938 0.0976,1.6211 0.11719,0.5273 0.3125,0.4688 0.19531,-0.1172 0.48828,-0.2735 0.29297,-0.1758 0.6836,-0.3906 0.35156,-0.3711 0.78125,-0.918 0.44922,-0.5469 1.07422,-1.289 0.35156,-0.5469 0.72265,-1.0743 0.13672,-0.1562 0.3125,-0.3711 0.19531,-0.2148 0.35156,-0.4296 0.3711,-0.9375 0.82032,-1.3868 0.46875,-0.4687 1.03515,-0.4687 0.50782,0 0.80078,0.1367 0.3125,0.1172 0.42969,0.3711 0.0586,0.1367 0.0977,0.4688 0.0391,0.332 0.0391,0.8789 0,0.2148 0.0781,0.625 0.0976,0.4101 0.0976,0.6054 0,0.7227 0.25391,1.0938 0.2539,0.3515 0.78125,0.3515 0.15625,0 0.37109,-0.059 0.21485,-0.059 0.42969,-0.1367 l 0.78125,1.7969 q -1.17188,0.7031 -1.93359,1.0742 -0.74219,0.3516 -1.11329,0.3516 -0.97656,0 -1.60156,-0.5078 -0.625,-0.5078 -0.91797,-1.5039 -0.0391,-0.2344 -0.17578,-0.4688 -0.11719,-0.2344 -0.3125,-0.4687 -0.17578,0.1953 -0.41015,0.4687 -0.21485,0.2735 -0.46875,0.5469 -0.52735,0.6445 -1.05469,1.2695 -0.52735,0.6055 -1.07422,1.211 -0.68359,0.8007 -1.38672,1.1718 -0.68359,0.3516 -1.28906,0.3516 -0.89844,0 -1.44531,-0.5273 -0.54688,-0.5469 -0.70313,-1.6016 -0.17578,-1.0156 -0.23437,-1.582 -0.0586,-0.5664 -0.0195,-0.6836 -0.0391,-0.5664 -0.11718,-0.8594 -0.0586,-0.293 -0.19532,-0.293 l -0.11718,0.059 -1.11328,1.1524 q -0.0586,0.1367 -0.19532,0.3515 -0.13672,0.1953 -0.37109,0.4883 -0.0781,-0.293 -0.27344,-0.7227 -0.19531,-0.4296 -0.50781,-1.0742 z"
         style="fill:#cc00ff"
         id="path118" />
    </g>
  </g>
</svg>
