<?xml version="1.0" encoding="UTF-8" standalone="no"?>
<!-- Created with Inkscape (http://www.inkscape.org/) -->

<svg
   xmlns:dc="http://purl.org/dc/elements/1.1/"
   xmlns:cc="http://creativecommons.org/ns#"
   xmlns:rdf="http://www.w3.org/1999/02/22-rdf-syntax-ns#"
   xmlns:svg="http://www.w3.org/2000/svg"
   xmlns="http://www.w3.org/2000/svg"
   xmlns:sodipodi="http://sodipodi.sourceforge.net/DTD/sodipodi-0.dtd"
   xmlns:inkscape="http://www.inkscape.org/namespaces/inkscape"
   width="841mm"
   height="1189mm"
   viewBox="0 0 841 1189"
   version="1.1"
   id="svg98"
   inkscape:version="0.92.4 (5da689c313, 2019-01-14)"
   sodipodi:docname="app_title1.svg">
  <defs
     id="defs92" />
  <sodipodi:namedview
     id="base"
     pagecolor="#ffffff"
     bordercolor="#666666"
     borderopacity="1.0"
     inkscape:pageopacity="0.0"
     inkscape:pageshadow="2"
     inkscape:zoom="0.14656453"
     inkscape:cx="1063.6812"
     inkscape:cy="1633.1498"
     inkscape:document-units="mm"
     inkscape:current-layer="flowRoot100"
     showgrid="false"
     inkscape:window-width="1366"
     inkscape:window-height="705"
     inkscape:window-x="-8"
     inkscape:window-y="-8"
     inkscape:window-maximized="1" />
  <metadata
     id="metadata95">
    <rdf:RDF>
      <cc:Work
         rdf:about="">
        <dc:format>image/svg+xml</dc:format>
        <dc:type
           rdf:resource="http://purl.org/dc/dcmitype/StillImage" />
        <dc:title />
      </cc:Work>
    </rdf:RDF>
  </metadata>
  <g
     inkscape:label="Layer 1"
     inkscape:groupmode="layer"
     id="layer1"
     transform="translate(0,892)">
    <g
       aria-label="Chandu"
       transform="matrix(7.3697317,0,0,9.1205316,-1708.9824,-16355.793)"
       style="font-style:normal;font-variant:normal;font-weight:normal;font-stretch:normal;font-size:40px;line-height:1.25;font-family:Mistral;-inkscape-font-specification:'Mistral, Normal';font-variant-ligatures:normal;font-variant-caps:normal;font-variant-numeric:normal;font-feature-settings:normal;text-align:start;letter-spacing:0px;word-spacing:0px;writing-mode:lr-tb;text-anchor:start;fill:#000000;fill-opacity:1;stroke:none"
       id="flowRoot100">
      <path
         d="m 259.10156,1769.624 q -0.58594,0.4492 -1.46484,1.0352 -0.85938,0.5859 -2.03125,1.289 -1.05469,0.6055 -1.875,1.0547 -0.80078,0.4297 -1.34766,0.6445 -0.80078,0.3711 -1.69922,0.5274 -0.89843,0.1758 -1.83593,0.1758 -0.29297,0 -0.66407,-0.098 -0.35156,-0.078 -0.76172,-0.1953 -0.50781,-0.1367 -0.85937,-0.2344 -0.35156,-0.098 -0.58594,-0.1172 l -0.23437,-0.2343 -0.56641,-0.078 q -0.37109,-0.019 -0.89844,-0.3711 -0.50781,-0.3515 -1.11328,-0.9765 -0.58594,-0.586 -0.95703,-1.1133 -0.35156,-0.5273 -0.50781,-0.957 l -0.52735,-1.6797 q -0.27343,-0.8594 -0.41015,-1.3867 -0.13672,-0.5274 -0.11719,-0.6836 l 0.21484,-0.8789 q -0.15625,-0.4493 -0.2539,-0.7422 -0.0781,-0.293 -0.0781,-0.4492 0,-0.1563 0.0977,-0.9571 0.0977,-0.8008 0.27344,-2.2265 0.13672,-0.2735 0.29297,-0.6641 0.15625,-0.3906 0.29296,-0.8789 l -0.0586,-0.4297 q 0,-0.1562 0.0586,-0.3516 0.0781,-0.2148 0.19532,-0.4687 0.44922,-0.957 0.89843,-1.9336 0.44922,-0.9766 0.89844,-1.8945 0.39063,-0.7032 0.9961,-1.4453 0.625,-0.7422 1.42578,-1.543 0.17578,-0.1953 0.42968,-0.5078 0.25391,-0.3125 0.60547,-0.6836 0.33203,-0.1953 0.80078,-0.586 0.48829,-0.4101 1.15235,-1.0351 0.19531,-0.078 0.46875,-0.2149 0.27344,-0.1367 0.66406,-0.332 0.0977,-0.059 0.23438,-0.1953 0.15625,-0.1367 0.35156,-0.293 0.21484,-0.1953 1.5625,-0.5859 1.34765,-0.3906 1.75781,-0.3906 0.89844,0 1.52344,0.1367 0.625,0.1172 0.99609,0.3906 l 0.625,0.1172 q 0.78125,0.1758 1.15235,1.1914 0.37109,1.0156 0.37109,2.9297 0,0.8984 -0.0195,1.4453 -0.0195,0.5273 -0.0586,0.7227 -0.11718,0.5859 -0.27343,1.4843 -0.13672,0.8789 -0.3711,2.0508 -0.0195,0.3125 -0.27343,1.0352 -0.23438,0.7031 -0.625,1.7578 -0.41016,1.1523 -0.70313,1.7578 -0.29297,0.5859 -0.48828,0.6445 -0.78125,0.1953 -1.67969,0.4297 -0.42969,0 -0.60547,-0.059 -0.17578,-0.078 -0.17578,-0.2344 0,-0.1367 0.0586,-0.4296 0.0781,-0.293 0.0781,-0.4102 -0.0586,-0.7422 -0.11719,-1.5039 0,-0.2734 0.15625,-1.0742 0.15625,-0.8008 0.46875,-2.0508 0.33203,-1.3672 0.58594,-2.1484 0.25391,-0.8008 0.41016,-0.9961 0.5664,-0.5274 0.82031,-0.9961 0.27344,-0.4883 0.27344,-0.8789 0,-0.5469 -0.27344,-0.9571 -0.25391,-0.4101 -0.78125,-0.625 -0.50781,-0.1172 -1.03516,-0.2148 -0.50781,-0.1172 -1.01562,-0.2734 -0.41016,0.1562 -0.74219,0.2343 -0.3125,0.078 -0.54687,0.1367 -1.3086,0.2149 -2.51954,1.211 -1.1914,0.9961 -2.28515,2.7539 -0.89844,1.5234 -1.44531,3.0664 -0.54688,1.5234 -0.74219,3.0664 -0.0781,0.4688 -0.19531,1.1719 -0.11719,0.6836 -0.33204,1.6211 0.17579,0.5859 0.3125,1.0742 l -0.19531,1.7773 q 0,0.098 0.17578,0.4102 0.17578,0.293 0.54688,0.8789 0.21484,0.332 0.39062,0.7812 0.17578,0.4493 0.27344,1.0157 0.0391,0.1367 0.13672,0.2929 0.11719,0.1563 0.25391,0.2539 0.29296,0.254 0.5664,0.4493 0.83985,0.8984 1.77735,1.3672 0.95703,0.4492 2.03125,0.4492 0.0977,0 0.72265,-0.098 0.64453,-0.098 1.75781,-0.3125 0.19532,-0.1367 0.50782,-0.2734 0.33203,-0.1367 0.78125,-0.293 0.39062,-0.3906 0.78125,-0.5469 0.39062,-0.1757 0.72265,-0.1757 0.0977,-0.1368 0.23438,-0.3321 0.15625,-0.1953 0.39062,-0.4297 0.58594,-0.2343 1.07422,-0.6054 0.48828,-0.3907 0.9375,-0.8985 0.78125,1.6992 0.78125,1.7969 z"
         style="fill:#ff0000"
         id="path108" />
      <path
         d="m 258.28125,1767.8271 q 0.42969,-0.3711 0.66406,-0.5859 0.23438,-0.2149 0.3711,-0.3711 0.3125,-0.293 0.50781,-0.5664 0.19531,-0.2734 0.21484,-0.4883 0.17578,-0.6641 0.41016,-1.6601 0.23437,-0.9961 0.60547,-2.3047 0.17578,-0.3907 0.37109,-0.9766 0.21484,-0.6055 0.44922,-1.3477 0.23437,-0.9765 0.58594,-1.7773 0.35156,-0.8008 0.78125,-1.4453 0.13672,-0.1758 0.27343,-0.4297 0.13672,-0.2734 0.27344,-0.625 0.13672,-0.3125 0.3711,-0.7227 0.2539,-0.4296 0.5664,-0.996 0.80078,-1.1719 1.40625,-2.0118 0.60547,-0.8398 0.9961,-1.3476 0.70312,-0.8399 1.40625,-1.5625 0.72265,-0.7422 1.44531,-1.3672 0.66406,-0.5664 1.15234,-0.8203 0.48828,-0.2735 0.78125,-0.2735 0.27344,0.2344 0.39063,0.4297 0.13672,0 0.27343,-0.039 0.50782,0 0.74219,0.4101 0.23438,0.4102 0.23438,1.211 0,0.1757 -0.0586,0.4687 -0.0586,0.2734 -0.15625,0.6836 -0.13672,0.1367 -0.19531,0.3516 -0.0586,0.2148 -0.0977,0.4297 -0.0195,0.2734 -0.0586,0.4687 -0.0391,0.1953 -0.0977,0.3516 -0.2539,0.4687 -0.54687,1.1523 -0.29297,0.6641 -0.625,1.5625 -0.19531,0.332 -0.48828,0.8789 -0.29297,0.5469 -0.70313,1.211 -0.19531,0.371 -0.50781,0.9375 -0.29297,0.5468 -0.76172,1.2695 -0.11719,0.2734 -0.41015,0.6055 -0.27344,0.3125 -0.66407,0.7421 -0.11718,0.3125 -0.66406,1.0743 -0.52734,0.7617 -1.48437,1.9726 -0.46875,0.6055 -1.21094,1.5039 -0.74219,0.8985 -1.71875,2.1289 -0.3711,1.4649 -0.56641,2.6172 -0.17578,1.1328 -0.17578,1.9727 0,0.332 0.0391,0.5078 0.0586,0.1562 0.19532,0.1562 0.0976,-0.1367 0.27343,-0.3125 0.19532,-0.1757 0.39063,-0.4101 0.37109,-0.3321 0.85937,-1.2305 0.50782,-0.8984 1.15235,-2.3242 0.5664,-1.2891 1.01562,-1.9727 0.44922,-0.7031 0.74219,-0.8398 l 0.68359,-0.293 q 0.19532,-0.078 0.35157,-0.1367 0.15625,-0.059 0.2539,-0.059 0.25391,0 0.46875,0.3125 0.21485,0.3125 0.35156,0.8594 0.25391,0.9961 0.41016,1.543 0.15625,0.5273 0.17578,0.625 0.25391,0.5859 0.60547,0.8593 0.37109,0.2735 0.87891,0.2735 0.60547,-0.098 1.42578,-0.2735 0.15625,0.3907 0.35156,0.8399 0.21484,0.4492 0.42969,0.957 -0.46875,0.3125 -0.95703,0.6055 -0.46875,0.2929 -0.9375,0.5859 -0.3125,0.1758 -0.89844,0.2734 -0.58594,0.078 -1.36719,0.078 -1.1914,0 -1.85547,-1.1133 -0.64453,-1.1328 -0.78125,-1.1133 h -0.11718 q -0.3125,0.3906 -0.66407,0.8008 -0.33203,0.4101 -0.66406,0.8594 -0.21484,0.4492 -0.60547,1.0351 -0.39062,0.586 -0.9375,1.2891 -0.64453,0.7812 -1.13281,1.1719 -0.48828,0.3906 -0.83984,0.3906 -0.74219,0 -1.17188,-0.1758 -0.41016,-0.1562 -0.48828,-0.4883 -0.23438,-1.0937 -0.37109,-1.8945 -0.11719,-0.8203 -0.11719,-1.3867 0,-0.1758 0.0195,-0.3125 0.0195,-0.1367 0.0391,-0.2539 0.0586,-0.2539 0.13672,-0.5469 0,-0.098 -0.0586,-0.1367 -0.0391,-0.059 -0.15625,-0.059 -0.0586,0.078 -0.15625,0.1758 -0.0977,0.098 -0.27344,0.2148 -0.0781,-0.2539 -0.27344,-0.7031 -0.19531,-0.4492 -0.50781,-1.0938 z m 12.69531,-18.0468 q -0.21484,0 -0.85937,0.7812 -0.64453,0.7617 -1.64063,2.2656 -0.5664,0.8399 -1.11328,1.6797 -0.54687,0.8203 -1.07422,1.6211 -0.23437,0.2344 -0.35156,0.4688 -0.0977,0.2343 -0.0977,0.4882 -0.39062,1.0938 -0.76172,2.0508 -0.35156,1.0352 -0.58593,1.6016 -0.21485,0.5664 -0.25391,0.664 l 0.0977,0.098 q 0.39062,-0.3516 0.66406,-0.7422 0.39062,-0.4492 0.9375,-1.1523 0.56641,-0.7227 1.26953,-1.6797 0.70313,-0.8985 1.44531,-2.2656 0.74219,-1.3868 1.60157,-3.1836 0.48828,-0.9766 0.72265,-1.5625 0.25391,-0.586 0.25391,-0.8203 0,-0.1368 -0.0586,-0.2149 -0.0391,-0.098 -0.19531,-0.098 z"
         style="fill:#0000ff"
         id="path110" />
      <path
         d="m 273.28125,1766.9678 1.77734,-1.1719 q 0.0977,-0.098 0.23438,-0.2539 0.13672,-0.1758 0.3125,-0.4883 0.13672,-0.2539 0.35156,-0.4297 0.23438,-0.1758 0.52734,-0.3125 0.15625,-0.1953 0.44922,-0.4883 0.29297,-0.2929 0.74219,-0.6836 0.21484,-0.1172 0.54688,-0.332 0.33203,-0.2344 0.72265,-0.6055 1.77735,-1.6797 3.10547,-2.5195 1.34766,-0.8398 2.26563,-0.8398 0.50781,0 0.74218,0.2148 0.25391,0.2148 0.25391,0.6055 0,0.4101 -0.15625,0.7226 -0.13672,0.3125 -0.44922,0.5274 -0.48828,0.3515 -1.05469,0.7812 -0.3125,0.4102 -0.76172,0.8789 -0.44921,0.4492 -1.05468,0.8985 -0.19532,0.2539 -0.33203,0.4492 -0.0977,0.098 -0.3711,0.3515 -0.27344,0.2539 -0.72265,0.586 -0.19532,0.4297 -0.85938,1.1133 -0.64453,0.6836 -1.73828,1.6406 -0.13672,0.1367 -0.48828,0.625 -0.35156,0.4883 -0.91797,1.289 l 0.13672,0.1758 q 0.42969,-0.1367 0.89844,-0.4687 0.46875,-0.3321 1.03515,-0.8789 0.66406,-0.6055 1.07422,-0.9766 0.42969,-0.3906 0.60547,-0.5078 0.13672,-0.078 0.27344,-0.1563 0.13672,-0.078 0.3125,-0.1953 0.89843,-1.0742 1.67968,-1.582 0.78125,-0.5273 1.44532,-0.5273 0.41015,0 0.625,0.332 0.21484,0.3125 0.2539,0.957 -0.0391,0.9766 -0.0391,1.875 -0.0195,0.625 0.33203,1.1328 0.3711,0.4883 0.95703,0.4883 0.17578,0 0.33203,-0.098 0.17579,-0.098 0.35157,-0.2539 0.13672,-0.1758 0.2539,-0.3321 0.13672,-0.1562 0.27344,-0.3125 0.0781,-0.039 0.21484,-0.1367 0.15625,-0.098 0.29297,-0.2344 0.27344,0.586 0.44922,1.0352 0.19531,0.4297 0.29297,0.7617 -0.44922,0.4102 -0.89844,0.8594 -0.42968,0.4297 -0.91797,0.8203 -0.58593,0.4492 -1.13281,0.6836 -0.54687,0.2148 -1.09375,0.2148 -1.26953,0 -1.95312,-0.7226 -0.6836,-0.7227 -0.80078,-2.1875 0,-0.1758 -0.0586,-0.3516 -0.0391,-0.1953 -0.19531,-0.3906 -0.0977,0.098 -0.21484,0.2148 -0.11719,0.098 -0.27344,0.2735 -0.25391,0.1953 -0.64453,0.4882 -0.3711,0.293 -0.87891,0.7032 -0.68359,0.7031 -1.15234,1.1523 -0.46875,0.4492 -0.66407,0.6445 -0.39062,0.3321 -0.91796,0.6641 -0.50782,0.332 -1.15235,0.6836 -0.41015,0.2148 -0.70312,0.332 -0.29297,0.1368 -0.42969,0.1368 -0.9375,0 -1.38672,-0.4493 -0.44922,-0.4687 -0.44922,-1.4257 0,-0.5274 0.23438,-0.9961 0.21484,-0.4883 0.66406,-0.9375 0.0391,-0.2539 0.0391,-0.4102 0,-0.098 -0.0586,-0.1953 -0.0391,-0.1172 -0.11719,-0.2539 -0.11719,-0.2735 -0.25391,-0.6055 -0.15625,-0.3515 -0.33203,-0.7422 0.0781,-0.078 0.23438,-0.2929 0.13672,-0.2344 0.33203,-0.5664 z"
         style="fill:#c83737"
         id="path112" />
      <path
         d="m 287.65625,1767.8271 q 0.0781,-0.1367 0.21484,-0.2929 0.11719,-0.1758 0.29297,-0.4102 0.19531,-0.1562 0.50781,-0.4492 0.3125,-0.293 0.70313,-0.6836 0.35156,-0.3906 0.85937,-0.957 0.50782,-0.586 1.23047,-1.4063 0.3125,-0.332 0.78125,-0.8398 0.46875,-0.5274 1.11328,-1.25 0.54688,-0.6446 1.17188,-0.9571 0.625,-0.3125 1.32812,-0.3125 0.70313,0 1.03516,0.4493 0.33203,0.4296 0.33203,1.2695 0,0.4492 -0.33203,1.7187 -0.33203,1.2696 -1.03516,3.3594 -0.17578,0.3906 -0.33203,0.7422 -0.11718,0.2539 -0.15625,0.4492 -0.0391,0.1953 -0.0391,0.293 0,0.1172 0.13672,0.293 0.0977,-0.059 0.17578,-0.1563 0.0977,-0.098 0.21484,-0.2344 0.15625,-0.2929 0.46875,-0.6054 0.33204,-0.3321 0.78125,-0.7227 0.17579,-0.332 0.44922,-0.6445 0.29297,-0.3321 0.64453,-0.6055 0.0781,-0.078 0.19532,-0.2539 0.13672,-0.1758 0.3125,-0.3711 0.2539,-0.2539 0.60547,-0.5273 0.35156,-0.2735 0.82031,-0.5664 0.52734,-0.2735 0.9375,-0.4297 0.42969,-0.1563 0.74219,-0.1563 0.60546,0 1.07421,0.293 0.46875,0.293 0.80079,0.918 0.39062,1.2109 0.74218,2.246 0.21485,0.6055 0.46875,0.8985 0.27344,0.293 0.60547,0.293 0.25391,0 0.44922,-0.098 0.21484,-0.098 0.39063,-0.293 l 0.78125,1.7969 q -0.33204,0.2734 -0.6836,0.5664 -0.35156,0.293 -0.68359,0.5664 -0.44922,0.4102 -0.83985,0.586 -0.39062,0.1562 -0.78125,0.1562 -0.44921,0 -0.85937,-0.1953 -0.41016,-0.1953 -0.70313,-0.5859 -0.15625,-0.1563 -0.39062,-0.5665 -0.23438,-0.4296 -0.54688,-1.0546 -0.2539,-0.2539 -0.58593,-0.6641 -0.3125,-0.4297 -0.74219,-0.9961 l -0.17578,-0.059 q -0.3711,0.1172 -0.74219,0.3516 -0.35156,0.2343 -0.76172,0.6054 -0.8789,0.7813 -1.26953,0.9766 -0.39062,0.1953 -0.52734,0.4492 -0.27344,0.4688 -0.9375,1.211 -0.66407,0.7421 -1.66016,1.7578 -0.25391,0.2539 -0.50781,0.5078 -0.25391,0.2344 -0.50781,0.4687 -0.25391,0.2149 -0.58594,0.293 -0.3125,0.098 -0.70313,0.098 -0.78125,0 -0.85937,-0.5274 -0.0586,-0.5469 -0.11719,-1.0937 0.29297,-0.8203 0.66406,-2.0508 0.3711,-1.2305 0.85938,-2.8711 0,-0.098 0.0586,-0.2539 0.0781,-0.1758 0.17578,-0.4492 0.0977,-0.2539 0.13672,-0.4297 0.0391,-0.1953 0.0391,-0.3321 0,-0.1367 -0.0976,-0.2148 -0.0977,-0.078 -0.3125,-0.078 -0.19531,0 -0.52735,0.2344 -0.3125,0.2343 -0.76171,0.7421 -0.54688,0.586 -0.87891,0.918 -0.33203,0.332 -0.44922,0.3906 -0.19531,0.1368 -0.46875,0.3907 -0.25391,0.2539 -0.58594,0.5664 -0.0391,0.078 -0.11718,0.2343 -0.0781,0.1563 -0.25391,0.3516 -0.0781,-0.293 -0.27344,-0.7227 -0.19531,-0.4296 -0.50781,-1.0742 z"
         style="fill:#00aad4"
         id="path114" />
      <path
         d="m 306.32812,1767.8271 0.11719,-0.1367 0.0586,-0.1953 q 0.35156,-0.4297 0.60546,-0.6641 0.25391,-0.2539 0.39063,-0.3906 0.0977,-0.098 0.42969,-0.2539 0.33203,-0.1562 0.89843,-0.3906 l 0.25391,-0.1563 q 0.13672,-0.2148 0.48828,-0.625 0.35156,-0.4101 0.83985,-0.9375 0.0976,-0.1172 0.29296,-0.2539 0.19532,-0.1367 0.41016,-0.3515 0.46875,-0.4493 0.9375,-0.918 0.46875,-0.4883 0.87891,-0.957 0.17578,-0.1758 0.72265,-0.625 0.54688,-0.4688 1.48438,-1.2891 0.13672,-0.098 0.48828,-0.2734 0.35156,-0.1954 0.91797,-0.4493 0.2539,-0.1171 0.37109,-0.3711 0.13672,-0.2734 0.13672,-0.6835 0.15625,-0.254 0.29297,-0.6055 0.15625,-0.3711 0.29297,-0.8594 0.19531,-0.6055 0.29297,-0.9766 0.11718,-0.3906 0.17578,-0.5273 0.33203,-0.8789 0.89844,-2.0508 0.5664,-1.1914 1.34765,-2.7148 0.39063,-0.8008 0.91797,-1.7774 0.33203,-0.4882 0.74219,-0.7226 0.41015,-0.2539 0.85937,-0.2539 0.35157,0 0.50782,0.2734 0.17578,0.2734 0.17578,0.8008 0,0.8398 -0.11719,1.6016 -0.11719,0.7617 -0.42969,1.4257 -0.0586,0.1368 -0.0976,0.4102 -0.0391,0.2734 -0.0781,0.6641 -0.0195,0.2734 -0.15625,0.5273 -0.11719,0.2539 -0.3125,0.4687 0,0.1368 -0.0391,0.3321 -0.0391,0.1758 -0.0781,0.4297 l -0.27343,0.3515 q -0.0391,0.1172 -0.0391,0.293 0,0.1562 0,0.332 0,0.1172 -0.13672,0.4688 -0.13671,0.332 -0.41015,0.957 -0.3125,0.6641 -0.50781,1.0547 -0.17579,0.3906 -0.19532,0.4883 -0.0781,0.098 -0.21484,0.3125 -0.11719,0.2148 -0.29297,0.4883 l 0.0586,0.4296 -1.25,4.4922 q 0,0.7422 0.0195,1.2696 0.0195,0.5273 0.11718,0.8398 0.0977,0.332 0.3125,0.8203 0.23438,0.4688 0.58594,1.0156 0.21484,0.3711 0.50781,0.5469 0.29297,0.1563 0.625,0.1563 0.3711,0 0.74219,-0.1953 0.39063,-0.2149 0.78125,-0.6446 0.23438,0.5078 0.42969,0.9571 0.21484,0.4492 0.35156,0.8398 -0.0977,0.059 -0.42969,0.4102 -0.3125,0.332 -0.83984,0.957 -0.3125,0.3711 -0.78125,0.5469 -0.44922,0.1562 -1.11328,0.1562 -1.46485,0 -2.38281,-0.7617 -0.91797,-0.7617 -1.28907,-2.2852 -0.0781,-0.3125 -0.13672,-0.5468 -0.0586,-0.2344 -0.11718,-0.4297 -0.13672,-0.3711 -0.46875,-0.8008 -0.13672,0.1953 -0.21485,0.293 -0.23437,0.1562 -0.52734,0.4492 -0.27344,0.293 -0.56641,0.7422 -0.0586,0.1953 -0.21484,0.4883 -0.15625,0.2734 -0.42969,0.664 -0.625,0.7227 -1.26953,1.4649 -0.64453,0.7226 -1.28906,1.4257 -0.87891,0.9766 -1.6211,1.4258 -0.74218,0.4688 -1.28906,0.4688 -0.97656,0 -1.44531,-0.4688 -0.46875,-0.4492 -0.46875,-1.4258 0,-0.4492 0.33203,-1.25 0.33203,-0.8203 0.33203,-1.2109 l -0.11719,-0.3125 z m 9.82422,-5.5859 q 0,-0.098 -0.0781,-0.293 -0.29297,0.293 -0.72266,0.6836 -0.42969,0.3906 -1.01562,0.8594 -0.13672,0.3125 -0.625,0.9961 -0.48828,0.664 -1.36719,1.6601 -0.25391,0.293 -0.68359,1.0157 -0.42969,0.7031 -1.05469,1.7382 -0.21485,0.4102 -0.44922,0.9961 0,0.1172 0.15625,0.2539 0.58594,-0.1757 1.42578,-1.0156 0.85938,-0.8594 2.03125,-2.3633 1.21094,-1.6015 1.79688,-2.7148 0.58593,-1.1328 0.58593,-1.8164 z"
         style="fill:#ff00cc"
         id="path116" />
      <path
         d="m 322.65625,1767.8271 q 0.0781,-0.059 0.13672,-0.1367 0.0391,-0.078 0.0391,-0.1953 0.33203,-0.2734 0.74219,-0.7422 0.42969,-0.4883 0.95703,-1.1328 0.42969,-0.5859 0.87891,-1.1719 0.46875,-0.5859 0.99609,-1.1719 0.42969,-0.5859 0.83984,-1.2109 0.42969,-0.6445 0.89844,-1.25 0.78125,-0.3711 1.21094,-0.5273 0.42969,-0.1563 0.58594,-0.1563 0.29296,0 0.44921,0.1953 0.15625,0.1758 0.15625,0.5274 0,0.1172 -0.0586,0.332 -0.0586,0.2148 -0.13672,0.4688 -0.13672,0.3906 -0.3125,0.8007 -0.15625,0.6836 -0.37109,1.3672 -0.21485,0.6836 -0.41016,1.3477 -0.19531,0.8398 -0.3125,1.5429 -0.0976,0.7032 -0.0976,1.2891 0,1.0938 0.0976,1.6211 0.11719,0.5273 0.3125,0.4688 0.19531,-0.1172 0.48828,-0.2735 0.29297,-0.1758 0.6836,-0.3906 0.35156,-0.3711 0.78125,-0.918 0.44922,-0.5469 1.07422,-1.289 0.35156,-0.5469 0.72265,-1.0743 0.13672,-0.1562 0.3125,-0.3711 0.19531,-0.2148 0.35156,-0.4296 0.3711,-0.9375 0.82032,-1.3868 0.46875,-0.4687 1.03515,-0.4687 0.50782,0 0.80078,0.1367 0.3125,0.1172 0.42969,0.3711 0.0586,0.1367 0.0977,0.4688 0.0391,0.332 0.0391,0.8789 0,0.2148 0.0781,0.625 0.0976,0.4101 0.0976,0.6054 0,0.7227 0.25391,1.0938 0.2539,0.3515 0.78125,0.3515 0.15625,0 0.37109,-0.059 0.21485,-0.059 0.42969,-0.1367 l 0.78125,1.7969 q -1.17188,0.7031 -1.93359,1.0742 -0.74219,0.3516 -1.11329,0.3516 -0.97656,0 -1.60156,-0.5078 -0.625,-0.5078 -0.91797,-1.5039 -0.0391,-0.2344 -0.17578,-0.4688 -0.11719,-0.2344 -0.3125,-0.4687 -0.17578,0.1953 -0.41015,0.4687 -0.21485,0.2735 -0.46875,0.5469 -0.52735,0.6445 -1.05469,1.2695 -0.52735,0.6055 -1.07422,1.211 -0.68359,0.8007 -1.38672,1.1718 -0.68359,0.3516 -1.28906,0.3516 -0.89844,0 -1.44531,-0.5273 -0.54688,-0.5469 -0.70313,-1.6016 -0.17578,-1.0156 -0.23437,-1.582 -0.0586,-0.5664 -0.0195,-0.6836 -0.0391,-0.5664 -0.11718,-0.8594 -0.0586,-0.293 -0.19532,-0.293 l -0.11718,0.059 -1.11328,1.1524 q -0.0586,0.1367 -0.19532,0.3515 -0.13672,0.1953 -0.37109,0.4883 -0.0781,-0.293 -0.27344,-0.7227 -0.19531,-0.4296 -0.50781,-1.0742 z"
         style="fill:#cc00ff"
         id="path118" />
      <flowRoot
         xml:space="preserve"
         id="flowRoot22"
         style="fill:black;fill-opacity:1;stroke:none;font-family:sans-serif;font-style:normal;font-weight:normal;font-size:40px;line-height:1.25;letter-spacing:0px;word-spacing:0px"><flowRegion
           id="flowRegion24"><rect
             id="rect26"
             width="2704.8323"
             height="1043.4622"
             x="392.31061"
             y="2696.1104" /></flowRegion><flowPara
           id="flowPara28"></flowPara></flowRoot>      <g
         id="g83"
         transform="matrix(4.7738994,0,0,5.2259943,-945.59086,-7537.5701)">
        <g
           aria-label="Made with      by Abhijit Apotikar "
           transform="matrix(0.03590135,0,0,0.02900964,231.89208,1695.4925)"
           style="font-style:normal;font-variant:normal;font-weight:normal;font-stretch:normal;font-size:40px;line-height:1.25;font-family:'Berlin Sans FB';-inkscape-font-specification:'Berlin Sans FB, Normal';font-variant-ligatures:normal;font-variant-caps:normal;font-variant-numeric:normal;font-feature-settings:normal;text-align:start;letter-spacing:0px;word-spacing:0px;writing-mode:lr-tb;text-anchor:start;fill:#000000;fill-opacity:1;stroke:none"
           id="flowRoot54">
          <path
             d="m 509.49219,3022.4066 q 0,0.4882 -0.48828,0.4882 -0.35157,0 -1.07422,-0.059 -0.70313,-0.059 -1.05469,-0.059 -0.35156,0 -1.07422,0.059 -0.72266,0.059 -1.07422,0.059 -0.48828,0 -0.48828,-0.6445 0,-2.4805 0.15625,-7.4414 0.15625,-4.9609 0.15625,-7.4414 0,-0.3711 -0.15625,-0.3711 -0.17578,0 -0.27344,0.2148 -0.99609,2.129 -4.70703,11.3672 -0.60547,1.7774 -1.73828,4.4336 -0.13672,0.2539 -1.40625,0.2539 -1.83594,0 -2.03125,-0.332 -0.66406,-1.582 -1.89453,-4.4336 -1.62109,-3.8672 -4.98047,-11.5234 -0.0586,-0.1367 -0.25391,-0.2735 -0.15625,0.1172 -0.15625,0.4297 0,2.5196 0.0781,7.5586 0.0977,5.0391 0.0977,7.5586 0,0.6445 -0.48829,0.6445 -0.33203,0 -1.01562,-0.059 -0.68359,-0.059 -1.01563,-0.059 -0.35156,0 -1.05468,0.059 -0.6836,0.059 -1.03516,0.059 -0.48828,0 -0.48828,-0.3711 0,-2.1679 0.19531,-6.4843 0.21485,-4.336 0.21485,-6.5039 0,-2.2461 -0.21485,-6.7383 -0.19531,-4.5117 -0.19531,-6.7578 0,-0.3711 0.44922,-0.4297 2.65625,-0.3516 4.0039,-0.3516 0.19532,0 0.54688,0.8008 4.72656,10.3906 8.125,18.5547 0.80078,1.9141 0.95703,1.9141 0.19531,0 0.83984,-1.5625 2.65625,-6.3282 7.36329,-18.7891 0.29296,-0.7617 0.64453,-0.7617 0.66406,0 1.99218,0.078 1.34766,0.078 2.01172,0.078 0.48828,0 0.48828,0.4688 0,2.2461 -0.15625,6.7578 -0.13671,4.4922 -0.13671,6.7383 0,2.1484 0.15625,6.4453 0.17578,4.2969 0.17578,6.4258 z"
             style=""
             id="path85" />
          <path
             d="m 532.61719,3005.2191 q 0,0.078 -0.0586,0.3515 -0.76172,4.4727 -0.76172,7.7149 0,0.1953 0.48829,8.7695 l 0.0195,0.2734 q 0.0195,0.5664 -0.52735,0.5664 -0.52734,0 -1.62109,0.1172 -1.07422,0.1367 -1.60156,0.1367 -0.3711,0 -0.56641,-1.3671 -0.19531,-1.3672 -0.37109,-1.3672 -0.11719,0 -1.05469,0.7617 -1.15234,0.9375 -2.14844,1.4258 -1.54297,0.7812 -3.08594,0.7812 -3.78906,0 -6.38671,-3.0273 -2.46094,-2.8906 -2.46094,-6.7383 0,-4.3359 2.48047,-7.168 2.59765,-2.9492 6.83593,-2.9492 2.98829,0 5.21485,2.0703 0.33203,0.3906 1.03515,1.1328 0.0586,0.059 0.11719,0.059 0.11719,0 0.33203,-1.2304 0.21485,-1.2305 0.54688,-1.2305 0.52734,0 1.97265,0.293 1.60157,0.3515 1.60157,0.625 z m -4.98047,8.164 q 0,-2.4023 -1.42578,-4.1211 -1.50391,-1.8554 -3.84766,-1.8554 -2.34375,0 -3.90625,1.8359 -1.50391,1.7578 -1.50391,4.1406 0,2.3633 1.50391,4.1016 1.5625,1.8164 3.90625,1.8164 2.28516,0 3.82813,-1.8555 1.44531,-1.7383 1.44531,-4.0625 z"
             style=""
             id="path87" />
          <path
             d="m 554.58984,2995.6487 q 0,2.5196 -0.23437,7.5586 -0.21485,5.0196 -0.21485,7.5196 0,7.7148 0.33204,11.6797 l 0.0195,0.2539 q 0.0195,0.1953 -0.52735,0.2539 -0.37109,0.039 -1.05468,0 -0.82032,-0.059 -0.76172,-0.059 -0.29297,0 -0.85938,0.059 -0.5664,0.059 -0.85937,0.059 -0.27344,0 -0.33203,-1.3477 -0.0391,-1.3672 -0.13672,-1.3867 -0.11719,0.059 -0.29297,0.2539 -2.67578,2.8906 -6.15235,2.8906 -3.94531,0 -6.48437,-3.0078 -2.40234,-2.832 -2.40234,-6.8359 0,-4.1602 2.42187,-6.9922 2.53906,-2.9688 6.62109,-2.9688 2.46094,0 4.29688,1.4453 0.83984,0.7227 1.66016,1.4649 0.15625,-0.059 0.15625,-0.2734 v -6.3282 q 0,-0.6445 -0.0586,-1.9531 -0.0586,-1.3086 -0.0586,-1.9727 0,-0.4687 0.3125,-0.4687 0.72265,0 2.14844,-0.1172 1.42578,-0.1367 2.1289,-0.1367 0.33203,0 0.33203,0.4101 z m -4.88281,17.7735 q 0,-2.3438 -1.44531,-4.1211 -1.54297,-1.8945 -3.82813,-1.8945 -2.40234,0 -3.96484,1.875 -1.48438,1.7578 -1.48438,4.2187 0,2.3438 1.54297,4.082 1.58203,1.836 3.90625,1.836 2.34375,0 3.86719,-1.8555 1.40625,-1.7383 1.40625,-4.1406 z"
             style=""
             id="path89" />
          <path
             d="m 574.62891,3012.4066 q 0,1.4453 -1.25,1.9336 -0.83985,0.3125 -12.08985,1.1523 0.25391,1.7187 1.89453,2.9297 1.5625,1.1523 3.35938,1.1523 3.08594,0 5.66406,-1.9922 0.3125,-0.2539 0.625,-0.5078 0.15625,0 0.19531,0.039 0.0586,0.039 0.74219,1.3672 0.68359,1.3086 0.68359,1.4062 0,0.1172 -0.3125,0.4492 -2.87109,3.0469 -7.36328,3.0469 -4.53125,0 -7.22656,-2.6953 -2.69531,-2.7148 -2.69531,-7.2266 0,-4.0234 2.57812,-7.0117 2.71485,-3.1054 6.66016,-3.1054 3.67187,0 6.13281,2.6953 2.40235,2.6172 2.40235,6.3672 z m -4.64844,-1.1914 q 0,-1.6211 -1.28906,-2.8711 -1.26954,-1.25 -2.8711,-1.25 -1.79687,0 -3.20312,1.4453 -1.38672,1.4453 -1.38672,3.2422 0,0.4101 0.70312,0.4101 2.89063,0 6.91407,-0.5859 1.13281,-0.1563 1.13281,-0.3906 z"
             style=""
             id="path91" />
          <path
             d="m 613.59375,3008.8909 q 0,3.6719 -0.41016,4.6094 -0.54687,1.2891 -2.89062,5.1367 -2.53906,4.1602 -3.06641,4.2969 -0.15625,0.039 -1.5625,0.039 -0.95703,0 -1.11328,-0.039 -0.60547,-0.1562 -4.64844,-6.7187 -1.11328,1.8359 -2.24609,3.6914 -1.83594,2.8906 -2.34375,3.0273 -0.15625,0.039 -1.28906,0.039 -1.15235,0 -1.3086,-0.039 -0.60547,-0.1367 -3.0664,-4.2578 -2.32422,-3.8867 -2.8125,-5.1758 -0.44922,-1.1719 -0.44922,-4.6094 0,-2.8711 0.19531,-3.9257 0.0977,-0.4297 0.48828,-0.4297 0.58594,0 1.75781,0.039 1.17188,0.039 1.75782,0.039 0.37109,0 0.37109,0.6055 0,0.4296 -0.0391,1.3086 -0.0391,0.8593 -0.0391,1.289 0,3.3985 0.19531,4.8047 0.17578,1.2305 3.0664,5.1563 0.35157,0.4687 0.41016,0.4687 0.0586,0 0.35156,-0.4297 2.53907,-3.6914 2.89063,-5.039 0.23437,-0.9375 0.23437,-4.1993 0,-0.664 -0.0781,-1.9726 -0.0781,-1.3086 -0.0781,-1.9531 0,-0.4297 0.35157,-0.4297 h 3.73046 q 0.3125,0 0.3125,0.5078 0,0.625 -0.0586,1.8945 -0.0586,1.25 -0.0586,1.875 0,3.457 0.11718,4.0039 0.11719,0.5274 1.83594,3.0664 1.71875,2.5196 1.97266,2.5196 0.0586,0 0.35156,-0.4688 2.48047,-3.7695 2.67578,-5.0391 0.17578,-1.0546 0.17578,-3.5742 0,-0.7422 -0.11718,-2.1289 -0.11719,-1.4062 -0.11719,-2.0117 0,-0.293 0.39062,-0.293 0.58594,0 1.73828,-0.039 1.15235,-0.039 1.73829,-0.039 0.42968,0 0.52734,0.3906 0.15625,0.7617 0.15625,4.0039 z"
             style=""
             id="path93" />
          <path
             d="m 621.60156,2999.5355 q 0,2.4023 -2.67578,2.4023 -2.71484,0 -2.71484,-2.4023 0,-1.0743 0.83984,-1.7774 0.78125,-0.664 1.875,-0.664 1.09375,0 1.875,0.6836 0.80078,0.6835 0.80078,1.7578 z m -0.13672,5.2929 q 0,1.5039 -0.19531,4.5508 -0.17578,3.0274 -0.17578,4.5508 0,1.4258 0.0586,4.2773 0.0586,2.8321 0.0586,4.2383 0,0.4102 -0.35157,0.4102 h -3.80859 q -0.41016,0 -0.41016,-0.8008 0,-1.3477 0.0586,-4.043 0.0781,-2.7148 0.0781,-4.082 0,-1.5234 -0.23437,-4.5703 -0.21485,-3.0469 -0.21485,-4.5703 0,-0.3321 0.41016,-0.3321 0.35156,0 1.07422,0.098 0.74219,0.098 1.11328,0.098 0.37109,0 1.09375,-0.098 0.74219,-0.098 1.11328,-0.098 0.33203,0 0.33203,0.3711 z"
             style=""
             id="path95" />
          <path
             d="m 636.23047,3019.3011 q 0,0.4297 -0.0781,1.1719 -0.0976,0.9179 -0.11718,1.1914 -0.0195,0.3515 -0.0586,0.4297 -0.0781,0.1367 -0.37109,0.2734 -1.60156,0.7617 -5.03906,0.7617 -4.57032,0 -4.57032,-4.1406 0,-1.6602 0.0781,-4.9805 0.0781,-3.3398 0.0781,-5 0,-0.8008 -0.80078,-0.8594 -0.72265,0 -1.42578,-0.02 -0.41016,-0.098 -0.41016,-1.6015 0,-0.5665 0.0781,-1.1915 0.0586,-0.4687 0.625,-0.5664 0.48828,0 0.95703,-0.019 0.89844,-0.039 0.89844,-0.8008 0,-0.7812 -0.0586,-2.3828 -0.0391,-1.6015 -0.0391,-2.4023 0,-1.4258 0.54688,-1.4258 0.17578,0 3.67187,0.6055 0.44922,0.059 0.44922,0.4296 0,0.8594 -0.13672,2.5782 -0.11719,1.7187 -0.11719,2.5781 0,0.5664 0.52735,0.5664 h 4.6875 q 0.33203,0 0.33203,0.2344 0,0.2344 -0.0781,0.7617 -0.0586,0.5078 -0.0586,0.7617 0,0.293 0.0195,0.8985 0.0195,0.6054 0.0195,0.8984 0,0.3711 -0.54687,0.3711 -0.78125,0 -2.36328,-0.098 -1.58203,-0.1172 -2.36328,-0.1172 -0.15625,0 -0.23438,1.1133 -0.0977,1.3867 -0.0977,3.8867 v 2.9102 q 0,1.6797 0.3125,2.3437 0.46875,1.0157 1.9336,1.0157 0.60547,0 1.77734,-0.2539 1.17188,-0.2735 1.73828,-0.2735 0.23438,0 0.23438,0.3516 z"
             style=""
             id="path97" />
          <path
             d="m 656.07422,3022.2112 q 0,0.7227 -0.41016,0.7227 -0.60547,0 -1.83594,-0.019 -1.23046,-0.02 -1.83593,-0.02 -0.48828,0 -0.48828,-0.6445 0,-0.9375 0.0586,-2.832 0.0781,-1.8946 0.0781,-2.8516 0,-0.8984 -0.0781,-2.7148 -0.0586,-1.836 -0.0586,-2.7539 0,-3.5157 -3.32032,-3.5157 -1.07422,0 -2.8125,1.0743 -1.85547,1.1523 -1.85547,2.1093 v 11.6016 q 0,0.5664 -0.41015,0.5664 -0.60547,0 -1.81641,-0.019 -1.21094,-0.02 -1.8164,-0.02 -0.44922,0 -0.44922,-0.5273 v -9.4336 q 0,-2.3047 -0.25391,-9.8047 -0.0391,-2.3242 -0.33203,-6.875 -0.0391,-0.2344 -0.0391,-0.3125 0,-0.332 0.23437,-0.4101 0.33203,-0.1172 2.20703,-0.1172 0.41016,0 1.23047,-0.1367 0.82031,-0.1563 1.19141,-0.1563 0.2539,0 0.2539,0.3711 0,1.8359 -0.15625,5.5273 -0.13671,3.6719 -0.13671,5.5079 0,0.4492 0.15625,0.4687 0.99609,-0.8398 2.57812,-2.0312 1.91406,-1.1915 4.04297,-1.1915 3.67187,0 5.05859,2.1875 0.9961,1.6016 0.9961,5.0782 0,0.6054 -0.0391,1.875 -0.0195,1.25 -0.0195,1.8554 0,1.25 0.0391,3.7305 0.0391,2.4805 0.0391,3.7109 z"
             style=""
             id="path99" />
          <path
             d="m 739.17969,3013.4612 q 0,3.8672 -2.40235,6.7383 -2.55859,3.0469 -6.36718,3.0469 -2.53907,0 -4.47266,-1.2891 -0.78125,-0.664 -1.5625,-1.3086 -0.21484,0.059 -0.29297,1.1719 -0.0586,1.1133 -0.3125,1.1133 h -4.12109 q -0.23438,0 -0.23438,-0.2539 0,0.02 0.0391,-0.3516 0.3125,-3.125 0.3125,-11.9531 0,-3.6133 -0.3125,-10.6055 -0.19531,-4.4531 -0.19531,-3.9062 0,-0.5078 0.50781,-0.5664 0.70313,-0.019 2.08985,-0.078 0.27344,-0.02 1.11328,-0.1368 0.70312,-0.1171 1.13281,-0.1171 0.3125,0 0.3125,0.4492 0,0.664 -0.0976,2.0312 -0.0977,1.3672 -0.0977,2.0508 0,1.0156 -0.0977,3.0664 -0.0781,2.0313 -0.0781,3.0469 0,0.7422 0.27344,0.7422 0.13671,0 0.29296,-0.2149 2.14844,-2.6758 5.6836,-2.6758 4.04297,0 6.54297,3.0274 2.34375,2.8516 2.34375,6.9726 z m -4.41407,-0.1757 q 0,-2.3243 -1.46484,-4.1016 -1.5625,-1.8945 -3.84766,-1.8945 -2.34375,0 -3.90625,1.8554 -1.5039,1.7579 -1.5039,4.1407 0,2.4218 1.5039,4.1797 1.5625,1.8359 3.94532,1.8359 2.30468,0 3.84765,-1.8945 1.42578,-1.7579 1.42578,-4.1211 z"
             style=""
             id="path101" />
          <path
             d="m 758.4375,3009.3011 q 0,3.3008 -0.19531,3.9844 -0.25391,0.8789 -4.84375,7.6757 -4.57032,6.7774 -5.42969,7.5782 -0.78125,0.7031 -5.03906,0.7031 -0.50782,0 -0.66407,-0.1172 -0.13671,-0.098 -0.66406,-1.4062 -0.50781,-1.3086 -0.50781,-1.5625 0,-0.4297 1.03516,-0.4297 2.1875,0 3.22265,-0.625 0.35156,-0.2149 1.05469,-1.3477 0.72266,-1.1328 0.72266,-1.5234 0,-0.5274 -2.83204,-4.1211 -2.98828,-3.8086 -3.33984,-4.8242 -0.27344,-0.8008 -0.27344,-3.8282 0,-0.7421 0.0195,-2.2265 0.0195,-1.5039 0.0195,-2.2656 0,-0.4297 0.46875,-0.4297 0.625,0 1.83593,0.078 1.23047,0.078 1.85547,0.078 0.3125,0 0.3125,0.4102 0,0.5468 -0.0586,1.6406 -0.0586,1.0937 -0.0586,1.6406 0,2.3828 0.15625,3.5547 0.11719,0.7422 2.12891,3.6914 2.01172,2.9492 2.48047,2.9492 0.33203,0 2.10937,-2.8906 1.77735,-2.9101 1.89454,-3.5937 0.15625,-0.9766 0.15625,-3.5547 0,-0.5664 -0.11719,-1.6602 -0.11719,-1.1133 -0.11719,-1.6601 0,-0.4883 0.3125,-0.4883 0.625,0 1.875,-0.078 1.26953,-0.098 1.89453,-0.098 0.58594,0 0.58594,4.7461 z"
             style=""
             id="path103" />
          <path
             d="m 795.25391,3022.6605 q 0,0.2343 -0.46875,0.2343 -0.3711,0 -1.09375,-0.059 -0.70313,-0.059 -1.07422,-0.059 -0.3711,0 -1.11328,0.059 -0.74219,0.059 -1.11329,0.059 -0.54687,0 -1.40625,-2.9492 -0.83984,-2.9687 -1.71875,-3.0078 -0.72265,-0.039 -3.76953,-0.039 h -3.08593 q -3.22266,0 -3.67188,0.039 -0.70312,0.059 -1.50391,3.0078 -0.78125,2.9492 -1.21093,2.9492 h -4.39453 q -0.39063,0 -0.39063,-0.2734 0,-0.1953 0.27344,-0.8789 l 4.78515,-13.0859 q 0.60547,-1.5821 3.67188,-9.1211 0.54687,-1.25 1.48437,-3.7696 0.23438,-0.7422 0.50782,-0.7422 0.37109,0 1.09375,0.098 0.72265,0.098 1.09375,0.098 0.35156,0 1.05468,-0.098 0.72266,-0.1172 1.05469,-0.1172 0.17578,0 0.48828,0.7227 0.46875,1.0937 4.62891,11.7773 5.87891,15.0195 5.87891,15.1563 z m -9.10157,-10.7813 q 0,-0.5664 -1.75781,-5.0781 -1.69922,-4.375 -2.40234,-5.7422 -4.04297,10.3125 -4.04297,10.8008 0,0.664 1.48437,0.7812 0.0781,0.02 1.91407,0.02 h 2.01171 q 2.79297,0 2.79297,-0.7813 z"
             style=""
             id="path105" />
          <path
             d="m 816.83594,3013.4612 q 0,3.8672 -2.40235,6.7383 -2.55859,3.0469 -6.36718,3.0469 -2.53907,0 -4.47266,-1.2891 -0.78125,-0.664 -1.5625,-1.3086 -0.21484,0.059 -0.29297,1.1719 -0.0586,1.1133 -0.3125,1.1133 h -4.12109 q -0.23438,0 -0.23438,-0.2539 0,0.02 0.0391,-0.3516 0.3125,-3.125 0.3125,-11.9531 0,-3.6133 -0.3125,-10.6055 -0.19531,-4.4531 -0.19531,-3.9062 0,-0.5078 0.50781,-0.5664 0.70313,-0.019 2.08985,-0.078 0.27344,-0.02 1.11328,-0.1368 0.70312,-0.1171 1.13281,-0.1171 0.3125,0 0.3125,0.4492 0,0.664 -0.0976,2.0312 -0.0977,1.3672 -0.0977,2.0508 0,1.0156 -0.0977,3.0664 -0.0781,2.0313 -0.0781,3.0469 0,0.7422 0.27344,0.7422 0.13671,0 0.29296,-0.2149 2.14844,-2.6758 5.6836,-2.6758 4.04297,0 6.54297,3.0274 2.34375,2.8516 2.34375,6.9726 z m -4.41407,-0.1757 q 0,-2.3243 -1.46484,-4.1016 -1.5625,-1.8945 -3.84766,-1.8945 -2.34375,0 -3.90625,1.8554 -1.5039,1.7579 -1.5039,4.1407 0,2.4218 1.5039,4.1797 1.5625,1.8359 3.94532,1.8359 2.30468,0 3.84765,-1.8945 1.42578,-1.7579 1.42578,-4.1211 z"
             style=""
             id="path107" />
          <path
             d="m 836.69922,3022.2112 q 0,0.7227 -0.41016,0.7227 -0.60547,0 -1.83594,-0.019 -1.23046,-0.02 -1.83593,-0.02 -0.48828,0 -0.48828,-0.6445 0,-0.9375 0.0586,-2.832 0.0781,-1.8946 0.0781,-2.8516 0,-0.8984 -0.0781,-2.7148 -0.0586,-1.836 -0.0586,-2.7539 0,-3.5157 -3.32032,-3.5157 -1.07422,0 -2.8125,1.0743 -1.85547,1.1523 -1.85547,2.1093 v 11.6016 q 0,0.5664 -0.41015,0.5664 -0.60547,0 -1.81641,-0.019 -1.21094,-0.02 -1.8164,-0.02 -0.44922,0 -0.44922,-0.5273 v -9.4336 q 0,-2.3047 -0.25391,-9.8047 -0.0391,-2.3242 -0.33203,-6.875 -0.0391,-0.2344 -0.0391,-0.3125 0,-0.332 0.23437,-0.4101 0.33203,-0.1172 2.20703,-0.1172 0.41016,0 1.23047,-0.1367 0.82031,-0.1563 1.19141,-0.1563 0.2539,0 0.2539,0.3711 0,1.8359 -0.15625,5.5273 -0.13671,3.6719 -0.13671,5.5079 0,0.4492 0.15625,0.4687 0.99609,-0.8398 2.57812,-2.0312 1.91406,-1.1915 4.04297,-1.1915 3.67187,0 5.05859,2.1875 0.9961,1.6016 0.9961,5.0782 0,0.6054 -0.0391,1.875 -0.0195,1.25 -0.0195,1.8554 0,1.25 0.0391,3.7305 0.0391,2.4805 0.0391,3.7109 z"
             style=""
             id="path109" />
          <path
             d="m 845.50781,2999.5355 q 0,2.4023 -2.67578,2.4023 -2.71484,0 -2.71484,-2.4023 0,-1.0743 0.83984,-1.7774 0.78125,-0.664 1.875,-0.664 1.09375,0 1.875,0.6836 0.80078,0.6835 0.80078,1.7578 z m -0.13672,5.2929 q 0,1.5039 -0.19531,4.5508 Q 845,3012.4066 845,3013.93 q 0,1.4258 0.0586,4.2773 0.0586,2.8321 0.0586,4.2383 0,0.4102 -0.35157,0.4102 h -3.80859 q -0.41016,0 -0.41016,-0.8008 0,-1.3477 0.0586,-4.043 0.0781,-2.7148 0.0781,-4.082 0,-1.5234 -0.23437,-4.5703 -0.21485,-3.0469 -0.21485,-4.5703 0,-0.3321 0.41016,-0.3321 0.35156,0 1.07422,0.098 0.74219,0.098 1.11328,0.098 0.37109,0 1.09375,-0.098 0.74219,-0.098 1.11328,-0.098 0.33203,0 0.33203,0.3711 z"
             style=""
             id="path111" />
          <path
             d="m 854.47266,2999.4964 q 0,2.3633 -2.73438,2.3633 -1.15234,0 -1.89453,-0.586 -0.82031,-0.6445 -0.82031,-1.7773 0,-1.0937 0.82031,-1.7969 0.78125,-0.6445 1.89453,-0.6445 1.11328,0 1.89453,0.6445 0.83985,0.7032 0.83985,1.7969 z m -0.25391,5.2734 q 0,1.2891 -0.11719,3.8868 -0.11719,2.5781 -0.11719,3.8867 0,1.4258 0.0391,4.2969 0.0391,2.8515 0.0391,4.2968 0,5.625 -5.07813,7.0899 -1.44531,0.4297 -2.10937,0.4297 -0.3125,0 -0.39063,-0.4102 -0.0781,-0.2734 -0.0391,-0.8203 0.0586,-0.7422 0.0586,-0.6445 0,-0.2539 -0.0586,-0.7813 -0.0781,-0.5078 -0.0781,-0.7422 0,-0.3515 0.2539,-0.4101 1.95313,-0.3516 2.5,-0.8789 0.66407,-0.6641 0.66407,-2.6368 0,-1.4062 -0.0781,-4.1992 -0.0781,-2.7929 -0.0781,-4.1992 0,-2.7734 -0.44922,-7.7539 l -0.0195,-0.2148 q 0,-0.2735 0.35156,-0.3516 0.11719,-0.039 2.1289,-0.1953 2.01172,-0.1563 2.26563,-0.1563 0.3125,0 0.3125,0.5078 z"
             style=""
             id="path113" />
          <path
             d="m 863.16406,2999.5355 q 0,2.4023 -2.67578,2.4023 -2.71484,0 -2.71484,-2.4023 0,-1.0743 0.83984,-1.7774 0.78125,-0.664 1.875,-0.664 1.09375,0 1.875,0.6836 0.80078,0.6835 0.80078,1.7578 z m -0.13672,5.2929 q 0,1.5039 -0.19531,4.5508 -0.17578,3.0274 -0.17578,4.5508 0,1.4258 0.0586,4.2773 0.0586,2.8321 0.0586,4.2383 0,0.4102 -0.35157,0.4102 h -3.80859 q -0.41016,0 -0.41016,-0.8008 0,-1.3477 0.0586,-4.043 0.0781,-2.7148 0.0781,-4.082 0,-1.5234 -0.23437,-4.5703 -0.21485,-3.0469 -0.21485,-4.5703 0,-0.3321 0.41016,-0.3321 0.35156,0 1.07422,0.098 0.74219,0.098 1.11328,0.098 0.37109,0 1.09375,-0.098 0.74219,-0.098 1.11328,-0.098 0.33203,0 0.33203,0.3711 z"
             style=""
             id="path115" />
          <path
             d="m 877.79297,3019.3011 q 0,0.4297 -0.0781,1.1719 -0.0976,0.9179 -0.11718,1.1914 -0.0195,0.3515 -0.0586,0.4297 -0.0781,0.1367 -0.37109,0.2734 -1.60156,0.7617 -5.03906,0.7617 -4.57032,0 -4.57032,-4.1406 0,-1.6602 0.0781,-4.9805 0.0781,-3.3398 0.0781,-5 0,-0.8008 -0.80078,-0.8594 -0.72265,0 -1.42578,-0.02 -0.41016,-0.098 -0.41016,-1.6015 0,-0.5665 0.0781,-1.1915 0.0586,-0.4687 0.625,-0.5664 0.48828,0 0.95703,-0.019 0.89844,-0.039 0.89844,-0.8008 0,-0.7812 -0.0586,-2.3828 -0.0391,-1.6015 -0.0391,-2.4023 0,-1.4258 0.54688,-1.4258 0.17578,0 3.67187,0.6055 0.44922,0.059 0.44922,0.4296 0,0.8594 -0.13672,2.5782 -0.11719,1.7187 -0.11719,2.5781 0,0.5664 0.52735,0.5664 h 4.6875 q 0.33203,0 0.33203,0.2344 0,0.2344 -0.0781,0.7617 -0.0586,0.5078 -0.0586,0.7617 0,0.293 0.0195,0.8985 0.0195,0.6054 0.0195,0.8984 0,0.3711 -0.54687,0.3711 -0.78125,0 -2.36328,-0.098 -1.58203,-0.1172 -2.36328,-0.1172 -0.15625,0 -0.23438,1.1133 -0.0977,1.3867 -0.0977,3.8867 v 2.9102 q 0,1.6797 0.3125,2.3437 0.46875,1.0157 1.9336,1.0157 0.60547,0 1.77734,-0.2539 1.17188,-0.2735 1.73828,-0.2735 0.23438,0 0.23438,0.3516 z"
             style=""
             id="path117" />
          <path
             d="m 914.78516,3022.6605 q 0,0.2343 -0.46875,0.2343 -0.3711,0 -1.09375,-0.059 -0.70313,-0.059 -1.07422,-0.059 -0.3711,0 -1.11328,0.059 -0.74219,0.059 -1.11329,0.059 -0.54687,0 -1.40625,-2.9492 -0.83984,-2.9687 -1.71875,-3.0078 -0.72265,-0.039 -3.76953,-0.039 h -3.08593 q -3.22266,0 -3.67188,0.039 -0.70312,0.059 -1.50391,3.0078 -0.78125,2.9492 -1.21093,2.9492 h -4.39453 q -0.39063,0 -0.39063,-0.2734 0,-0.1953 0.27344,-0.8789 l 4.78515,-13.0859 q 0.60547,-1.5821 3.67188,-9.1211 0.54687,-1.25 1.48437,-3.7696 0.23438,-0.7422 0.50782,-0.7422 0.37109,0 1.09375,0.098 0.72265,0.098 1.09375,0.098 0.35156,0 1.05468,-0.098 0.72266,-0.1172 1.05469,-0.1172 0.17578,0 0.48828,0.7227 0.46875,1.0937 4.62891,11.7773 5.87891,15.0195 5.87891,15.1563 z m -9.10157,-10.7813 q 0,-0.5664 -1.75781,-5.0781 -1.69922,-4.375 -2.40234,-5.7422 -4.04297,10.3125 -4.04297,10.8008 0,0.664 1.48437,0.7812 0.0781,0.02 1.91407,0.02 h 2.01171 q 2.79297,0 2.79297,-0.7813 z"
             style=""
             id="path119" />
          <path
             d="m 936.52344,3013.5003 q 0,3.9453 -2.5,6.8555 -2.61719,3.0664 -6.50391,3.0664 -2.42187,0 -4.23828,-1.5039 -0.82031,-0.7617 -1.64063,-1.543 -0.11718,0.059 -0.15625,0.3125 -0.0195,0.1172 -0.0195,2.1875 l -0.0195,5.5078 q 0,0.625 -0.44922,0.625 -3.00781,0 -3.55468,-0.078 -0.44922,-0.059 -0.44922,-0.5078 0,-2.5 0.0391,-7.5 0.0391,-5 0.0391,-7.5 0,-4.5899 -0.58594,-8.6133 -0.0391,-0.2344 -0.0391,-0.3125 0,-0.2148 0.19531,-0.2734 0.74219,-0.039 2.16797,-0.2149 1.91407,-0.3515 2.14844,-0.3515 0.33203,0 0.42969,1.1718 0.0586,0.7813 0.0977,1.543 0,0.1563 0.11719,0.3125 0.13672,-0.078 0.3125,-0.2734 2.73438,-2.793 5.52735,-2.793 3.86718,0 6.52343,3.0273 2.5586,2.9102 2.5586,6.8555 z m -4.57032,-0.078 q 0,-2.3438 -1.46484,-4.1211 -1.54297,-1.8945 -3.84766,-1.8945 -2.26562,0 -3.71093,1.9531 -1.32813,1.7578 -1.32813,4.1015 0,2.3829 1.36719,4.1407 1.50391,1.8945 3.82812,1.8945 2.22657,0 3.75,-1.9727 1.40625,-1.8359 1.40625,-4.1015 z"
             style=""
             id="path121" />
          <path
             d="m 957.26562,3013.3831 q 0,4.0821 -2.67578,6.9727 -2.73437,2.9883 -6.77734,2.9883 -4.0625,0 -6.79688,-2.9688 -2.67578,-2.8711 -2.67578,-6.9531 0,-4.082 2.67578,-6.9531 2.75391,-2.9297 6.79688,-2.9297 4.02344,0 6.75781,2.9297 2.69531,2.8515 2.69531,6.914 z m -4.12109,0.039 q 0,-2.3828 -1.46484,-4.0625 -1.52344,-1.7774 -3.86719,-1.7774 -2.34375,0 -3.88672,1.7579 -1.46484,1.6992 -1.46484,4.082 0,2.3437 1.48437,4.0625 1.5625,1.8164 3.86719,1.8164 2.32422,0 3.86719,-1.8164 1.46484,-1.7188 1.46484,-4.0625 z"
             style=""
             id="path123" />
          <path
             d="m 970.91797,3019.3011 q 0,0.4297 -0.0781,1.1719 -0.0976,0.9179 -0.11718,1.1914 -0.0195,0.3515 -0.0586,0.4297 -0.0781,0.1367 -0.37109,0.2734 -1.60156,0.7617 -5.03906,0.7617 -4.57032,0 -4.57032,-4.1406 0,-1.6602 0.0781,-4.9805 0.0781,-3.3398 0.0781,-5 0,-0.8008 -0.80078,-0.8594 -0.72265,0 -1.42578,-0.02 -0.41016,-0.098 -0.41016,-1.6015 0,-0.5665 0.0781,-1.1915 0.0586,-0.4687 0.625,-0.5664 0.48828,0 0.95703,-0.019 0.89844,-0.039 0.89844,-0.8008 0,-0.7812 -0.0586,-2.3828 -0.0391,-1.6015 -0.0391,-2.4023 0,-1.4258 0.54688,-1.4258 0.17578,0 3.67187,0.6055 0.44922,0.059 0.44922,0.4296 0,0.8594 -0.13672,2.5782 -0.11719,1.7187 -0.11719,2.5781 0,0.5664 0.52735,0.5664 h 4.6875 q 0.33203,0 0.33203,0.2344 0,0.2344 -0.0781,0.7617 -0.0586,0.5078 -0.0586,0.7617 0,0.293 0.0195,0.8985 0.0195,0.6054 0.0195,0.8984 0,0.3711 -0.54687,0.3711 -0.78125,0 -2.36328,-0.098 -1.58203,-0.1172 -2.36328,-0.1172 -0.15625,0 -0.23438,1.1133 -0.0977,1.3867 -0.0977,3.8867 v 2.9102 q 0,1.6797 0.3125,2.3437 0.46875,1.0157 1.9336,1.0157 0.60547,0 1.77734,-0.2539 1.17188,-0.2735 1.73828,-0.2735 0.23438,0 0.23438,0.3516 z"
             style=""
             id="path125" />
          <path
             d="m 978.78906,2999.5355 q 0,2.4023 -2.67578,2.4023 -2.71484,0 -2.71484,-2.4023 0,-1.0743 0.83984,-1.7774 0.78125,-0.664 1.875,-0.664 1.09375,0 1.875,0.6836 0.80078,0.6835 0.80078,1.7578 z m -0.13672,5.2929 q 0,1.5039 -0.19531,4.5508 -0.17578,3.0274 -0.17578,4.5508 0,1.4258 0.0586,4.2773 0.0586,2.8321 0.0586,4.2383 0,0.4102 -0.35157,0.4102 h -3.80859 q -0.41016,0 -0.41016,-0.8008 0,-1.3477 0.0586,-4.043 0.0781,-2.7148 0.0781,-4.082 0,-1.5234 -0.23437,-4.5703 -0.21485,-3.0469 -0.21485,-4.5703 0,-0.3321 0.41016,-0.3321 0.35156,0 1.07422,0.098 0.74219,0.098 1.11328,0.098 0.37109,0 1.09375,-0.098 0.74219,-0.098 1.11328,-0.098 0.33203,0 0.33203,0.3711 z"
             style=""
             id="path127" />
          <path
             d="m 1001.7383,3009.4964 q 0,5.0781 -4.70705,6.7969 0,0.9961 1.95312,3.6133 1.95313,2.5976 1.95313,2.5976 0,0.293 -1.95313,0.3906 -1.28906,0.059 -1.93359,0.059 -1.38672,0 -1.73828,-0.5859 -0.91797,-1.5625 -2.89063,-4.5508 -0.23437,-0.3515 -4.23828,-0.293 l -0.76172,0.02 v 4.8242 q 0,0.6055 -0.42968,0.6055 -0.625,0 -1.85547,-0.02 -1.21094,-0.019 -1.83594,-0.019 -0.42969,0 -0.42969,-0.7617 v -12.1485 q 0,-2.3828 -0.19531,-7.1289 -0.17578,-4.7461 -0.17578,-7.1289 0,-0.3515 0.37109,-0.3906 0.64453,-0.02 1.95313,-0.078 0.27344,-0.019 1.15234,-0.1367 0.70313,-0.098 1.13281,-0.098 0.27344,0 0.27344,0.4688 0,1.0546 -0.0976,3.1445 -0.0977,2.0898 -0.0977,3.1445 v 5.0391 q 0,0.4101 0.17578,0.4101 0.46875,-0.3906 1.40625,-1.1523 3.28125,-2.5391 6.25,-2.5391 2.89063,0 4.72656,1.4844 1.99221,1.6211 1.99221,4.4336 z m -4.70705,0.918 q 0,-2.793 -3.61328,-2.793 -2.69531,0 -6.07422,3.5938 v 2.9101 q 1.58203,0.293 3.82812,0.293 2.26563,0 3.86719,-0.8594 1.99219,-1.0742 1.99219,-3.1445 z"
             style=""
             id="path129" />
          <path
             d="m 1023.3984,3005.2191 q 0,0.078 -0.059,0.3515 -0.7617,4.4727 -0.7617,7.7149 0,0.1953 0.4883,8.7695 l 0.019,0.2734 q 0.02,0.5664 -0.5273,0.5664 -0.5274,0 -1.6211,0.1172 -1.0742,0.1367 -1.6016,0.1367 -0.3711,0 -0.5664,-1.3671 -0.1953,-1.3672 -0.3711,-1.3672 -0.1172,0 -1.0547,0.7617 -1.1523,0.9375 -2.1484,1.4258 -1.543,0.7812 -3.0859,0.7812 -3.7891,0 -6.3867,-3.0273 -2.461,-2.8906 -2.461,-6.7383 0,-4.3359 2.4805,-7.168 2.5976,-2.9492 6.8359,-2.9492 2.9883,0 5.2149,2.0703 0.332,0.3906 1.0351,1.1328 0.059,0.059 0.1172,0.059 0.1172,0 0.332,-1.2304 0.2149,-1.2305 0.5469,-1.2305 0.5274,0 1.9727,0.293 1.6015,0.3515 1.6015,0.625 z m -4.9804,8.164 q 0,-2.4023 -1.4258,-4.1211 -1.5039,-1.8554 -3.8477,-1.8554 -2.3437,0 -3.9062,1.8359 -1.5039,1.7578 -1.5039,4.1406 0,2.3633 1.5039,4.1016 1.5625,1.8164 3.9062,1.8164 2.2852,0 3.8282,-1.8555 1.4453,-1.7383 1.4453,-4.0625 z"
             style=""
             id="path131" />
          <path
             d="m 1037.7734,3004.555 q 0,2.1484 -0.2929,3.9062 -0.059,0.4493 -0.3907,0.4493 -0.4101,0 -1.25,-0.078 -0.8203,-0.098 -1.25,-0.098 -2.4609,0 -3.1445,1.3867 -0.4101,0.8398 -0.4101,3.4961 v 2.1484 q 0,1.0938 0.078,3.3203 0.098,2.2266 0.098,3.3204 0,0.5273 -0.4492,0.5273 -0.6054,0 -1.8359,-0.019 -1.2305,-0.02 -1.836,-0.02 -0.4492,0 -0.4492,-0.4882 0,-1.5821 0.039,-4.7657 0.059,-3.1836 0.059,-4.7851 0,-4.8242 -0.8985,-7.7539 -0.039,-0.1563 -0.039,-0.2344 0,-0.2344 0.2539,-0.332 0.7226,-0.078 2.0312,-0.2344 2.1094,-0.3906 1.9532,-0.3906 0.3125,0 0.4101,1.1523 0.098,1.1524 0.3516,1.1524 0.039,0 0.098,-0.039 0.8008,-0.5078 1.6016,-1.0156 0.8789,-0.5274 1.7969,-0.7813 0.7617,-0.2344 1.9531,-0.2344 1.5234,0 1.5234,0.4102 z"
             style=""
             id="path133" />
        </g>
        <g
           transform="matrix(0.14302359,0,0,0.18419498,218.41601,1453.0681)"
           style="fill:#ff0066"
           id="g74">
          <path
             style="fill:#ff0066;stroke:#000000;stroke-width:0.03227205px;stroke-linecap:butt;stroke-linejoin:miter;stroke-opacity:1"
             d="m 266.30791,1788.5972 c 0,0 3.66093,-3.4619 5.08276,-2.3752 2.59311,1.9821 -4.83781,7.7194 -4.83781,7.7194"
             id="path68"
             inkscape:connector-curvature="0"
             sodipodi:nodetypes="csc" />
          <path
             sodipodi:nodetypes="csc"
             inkscape:connector-curvature="0"
             id="path70"
             d="m 266.79781,1788.5972 c 0,0 -3.66093,-3.4619 -5.08276,-2.3752 -2.59311,1.9821 4.83781,7.7194 4.83781,7.7194"
             style="fill:#ff0066;stroke:#000000;stroke-width:0.03227205px;stroke-linecap:butt;stroke-linejoin:miter;stroke-opacity:1" />
        </g>
      </g>
    </g>
  </g>
</svg>
